<mxfile host="app.diagrams.net" modified="2024-04-26T20:01:55.025Z" agent="Mozilla/5.0 (Windows NT 10.0; Win64; x64) AppleWebKit/537.36 (KHTML, like Gecko) Chrome/124.0.0.0 Safari/537.36" etag="hbjNHayPk3Ag84C0lSnh" version="24.2.8" type="device">
  <diagram name="Page-1" id="qySFYgVWvKW3WrCdpiaf">
    <mxGraphModel dx="794" dy="458" grid="1" gridSize="10" guides="1" tooltips="1" connect="1" arrows="1" fold="1" page="1" pageScale="1" pageWidth="850" pageHeight="1100" math="0" shadow="0">
      <root>
        <mxCell id="0" />
        <mxCell id="1" parent="0" />
        <mxCell id="kskQlB_dkP9eEl7HwI4r-2" value="" style="endArrow=none;html=1;rounded=0;strokeWidth=6;fillColor=#bac8d3;strokeColor=#BAC8D3;labelBorderColor=default;fontColor=#FF99FF;targetPerimeterSpacing=0;" parent="1" edge="1">
          <mxGeometry width="50" height="50" relative="1" as="geometry">
            <mxPoint x="80" y="1480" as="sourcePoint" />
            <mxPoint x="84.5" y="160" as="targetPoint" />
          </mxGeometry>
        </mxCell>
        <mxCell id="kskQlB_dkP9eEl7HwI4r-3" value="Actor" style="shape=umlActor;verticalLabelPosition=bottom;verticalAlign=top;html=1;outlineConnect=0;" parent="1" vertex="1">
          <mxGeometry x="70" y="60" width="30" height="60" as="geometry" />
        </mxCell>
        <mxCell id="kskQlB_dkP9eEl7HwI4r-22" value="" style="group" parent="1" vertex="1" connectable="0">
          <mxGeometry x="500" y="60" width="150" height="60" as="geometry" />
        </mxCell>
        <mxCell id="kskQlB_dkP9eEl7HwI4r-128" style="edgeStyle=none;rounded=0;orthogonalLoop=1;jettySize=auto;html=1;exitX=1;exitY=0.75;exitDx=0;exitDy=0;entryX=1;entryY=1;entryDx=0;entryDy=0;strokeColor=#BAC8D3;strokeWidth=4;align=center;verticalAlign=middle;fontFamily=Helvetica;fontSize=11;fontColor=#FF99FF;labelBorderColor=default;labelBackgroundColor=default;endArrow=none;fillColor=#bac8d3;" parent="kskQlB_dkP9eEl7HwI4r-22" source="kskQlB_dkP9eEl7HwI4r-23" target="kskQlB_dkP9eEl7HwI4r-24" edge="1">
          <mxGeometry relative="1" as="geometry" />
        </mxCell>
        <mxCell id="kskQlB_dkP9eEl7HwI4r-23" value="" style="rounded=0;whiteSpace=wrap;html=1;fillColor=#bac8d3;strokeColor=#23445d;" parent="kskQlB_dkP9eEl7HwI4r-22" vertex="1">
          <mxGeometry width="150" height="60" as="geometry" />
        </mxCell>
        <mxCell id="kskQlB_dkP9eEl7HwI4r-24" value="AbstractDatabaseServlet" style="text;html=1;align=center;verticalAlign=middle;whiteSpace=wrap;rounded=0;fillColor=none;fontStyle=1;fontColor=#FFFFFF;fontSize=11;" parent="kskQlB_dkP9eEl7HwI4r-22" vertex="1">
          <mxGeometry x="34.166666666666664" y="15" width="81.66666666666666" height="30" as="geometry" />
        </mxCell>
        <mxCell id="kskQlB_dkP9eEl7HwI4r-25" value="" style="group" parent="1" vertex="1" connectable="0">
          <mxGeometry x="180" y="60" width="140" height="60" as="geometry" />
        </mxCell>
        <mxCell id="kskQlB_dkP9eEl7HwI4r-26" value="" style="rounded=0;whiteSpace=wrap;html=1;fillColor=#bac8d3;strokeColor=#23445d;" parent="kskQlB_dkP9eEl7HwI4r-25" vertex="1">
          <mxGeometry width="140" height="60" as="geometry" />
        </mxCell>
        <mxCell id="kskQlB_dkP9eEl7HwI4r-27" value="&lt;span style=&quot;font-size: 12px;&quot;&gt;Web Server&lt;/span&gt;" style="text;html=1;align=center;verticalAlign=middle;whiteSpace=wrap;rounded=0;fillColor=none;fontStyle=1;fontColor=#FFFFFF;fontSize=11;" parent="kskQlB_dkP9eEl7HwI4r-25" vertex="1">
          <mxGeometry x="31.888888888888886" y="15" width="76.22222222222221" height="30" as="geometry" />
        </mxCell>
        <mxCell id="kskQlB_dkP9eEl7HwI4r-39" value="" style="group" parent="1" vertex="1" connectable="0">
          <mxGeometry x="610" y="1230" width="140" height="60" as="geometry" />
        </mxCell>
        <mxCell id="kskQlB_dkP9eEl7HwI4r-40" value="" style="rounded=0;whiteSpace=wrap;html=1;fillColor=#bac8d3;strokeColor=#23445d;" parent="kskQlB_dkP9eEl7HwI4r-39" vertex="1">
          <mxGeometry width="140" height="60" as="geometry" />
        </mxCell>
        <mxCell id="kskQlB_dkP9eEl7HwI4r-41" value="ResponsePackage" style="text;html=1;align=center;verticalAlign=middle;whiteSpace=wrap;rounded=0;fillColor=none;fontStyle=1;fontColor=#FFFFFF;fontSize=11;" parent="kskQlB_dkP9eEl7HwI4r-39" vertex="1">
          <mxGeometry x="31.888888888888886" y="15" width="76.22222222222221" height="30" as="geometry" />
        </mxCell>
        <mxCell id="kskQlB_dkP9eEl7HwI4r-42" value="" style="group" parent="1" vertex="1" connectable="0">
          <mxGeometry x="910" y="60" width="140" height="60" as="geometry" />
        </mxCell>
        <mxCell id="kskQlB_dkP9eEl7HwI4r-43" value="" style="rounded=0;whiteSpace=wrap;html=1;fillColor=#bac8d3;strokeColor=#23445d;" parent="kskQlB_dkP9eEl7HwI4r-42" vertex="1">
          <mxGeometry width="140" height="60" as="geometry" />
        </mxCell>
        <mxCell id="kskQlB_dkP9eEl7HwI4r-44" value="AbstractDAO" style="text;html=1;align=center;verticalAlign=middle;whiteSpace=wrap;rounded=0;fillColor=none;fontStyle=1;fontColor=#FFFFFF;fontSize=11;" parent="kskQlB_dkP9eEl7HwI4r-42" vertex="1">
          <mxGeometry x="31.888888888888886" y="15" width="76.22222222222221" height="30" as="geometry" />
        </mxCell>
        <mxCell id="kskQlB_dkP9eEl7HwI4r-140" style="edgeStyle=none;rounded=0;orthogonalLoop=1;jettySize=auto;html=1;entryX=0.5;entryY=1;entryDx=0;entryDy=0;strokeColor=#BAC8D3;strokeWidth=4;align=center;verticalAlign=middle;fontFamily=Helvetica;fontSize=11;fontColor=#FF99FF;labelBorderColor=default;labelBackgroundColor=default;endArrow=none;fillColor=#bac8d3;" parent="kskQlB_dkP9eEl7HwI4r-42" source="kskQlB_dkP9eEl7HwI4r-43" target="kskQlB_dkP9eEl7HwI4r-43" edge="1">
          <mxGeometry relative="1" as="geometry" />
        </mxCell>
        <mxCell id="kskQlB_dkP9eEl7HwI4r-45" value="" style="group" parent="1" vertex="1" connectable="0">
          <mxGeometry x="1160" y="60" width="150" height="70" as="geometry" />
        </mxCell>
        <mxCell id="kskQlB_dkP9eEl7HwI4r-46" value="" style="rounded=0;whiteSpace=wrap;html=1;fillColor=#bac8d3;strokeColor=#23445d;" parent="kskQlB_dkP9eEl7HwI4r-45" vertex="1">
          <mxGeometry width="140" height="60" as="geometry" />
        </mxCell>
        <mxCell id="kskQlB_dkP9eEl7HwI4r-47" value="Database Server" style="text;html=1;align=center;verticalAlign=middle;whiteSpace=wrap;rounded=0;fillColor=none;fontStyle=1;fontColor=#FFFFFF;fontSize=11;" parent="kskQlB_dkP9eEl7HwI4r-45" vertex="1">
          <mxGeometry x="27.09" y="17.5" width="95.83" height="35" as="geometry" />
        </mxCell>
        <mxCell id="kskQlB_dkP9eEl7HwI4r-50" value="" style="endArrow=none;html=1;rounded=0;strokeWidth=6;fillColor=#bac8d3;strokeColor=#BAC8D3;labelBorderColor=default;fontColor=#FF99FF;targetPerimeterSpacing=0;" parent="1" edge="1">
          <mxGeometry width="50" height="50" relative="1" as="geometry">
            <mxPoint x="245" y="1420" as="sourcePoint" />
            <mxPoint x="245" y="190" as="targetPoint" />
          </mxGeometry>
        </mxCell>
        <mxCell id="kskQlB_dkP9eEl7HwI4r-54" value="" style="endArrow=none;html=1;rounded=0;strokeWidth=6;fillColor=#bac8d3;strokeColor=#BAC8D3;labelBorderColor=default;fontColor=#FF99FF;targetPerimeterSpacing=0;" parent="1" edge="1">
          <mxGeometry width="50" height="50" relative="1" as="geometry">
            <mxPoint x="410" y="1410" as="sourcePoint" />
            <mxPoint x="410" y="290" as="targetPoint" />
            <Array as="points" />
          </mxGeometry>
        </mxCell>
        <mxCell id="kskQlB_dkP9eEl7HwI4r-56" value="" style="group" parent="1" vertex="1" connectable="0">
          <mxGeometry x="90" y="170" width="150" height="30" as="geometry" />
        </mxCell>
        <mxCell id="kskQlB_dkP9eEl7HwI4r-1" value="" style="endArrow=classic;html=1;rounded=0;" parent="kskQlB_dkP9eEl7HwI4r-56" edge="1">
          <mxGeometry width="50" height="50" relative="1" as="geometry">
            <mxPoint y="30" as="sourcePoint" />
            <mxPoint x="150" y="30" as="targetPoint" />
          </mxGeometry>
        </mxCell>
        <mxCell id="kskQlB_dkP9eEl7HwI4r-52" value="&lt;span style=&quot;color: rgb(0, 0, 0); font-size: 12px;&quot;&gt;1: POST /auth/login&lt;/span&gt;" style="text;html=1;align=center;verticalAlign=middle;whiteSpace=wrap;rounded=0;fontFamily=Helvetica;fontSize=11;fontColor=#FF99FF;labelBorderColor=none;labelBackgroundColor=default;" parent="kskQlB_dkP9eEl7HwI4r-56" vertex="1">
          <mxGeometry x="10" width="120" height="30" as="geometry" />
        </mxCell>
        <mxCell id="kskQlB_dkP9eEl7HwI4r-61" value="" style="endArrow=none;html=1;rounded=0;strokeWidth=6;fillColor=#bac8d3;strokeColor=#BAC8D3;labelBorderColor=default;fontColor=#FF99FF;targetPerimeterSpacing=0;" parent="1" edge="1">
          <mxGeometry width="50" height="50" relative="1" as="geometry">
            <mxPoint x="574" y="400" as="sourcePoint" />
            <mxPoint x="574.29" y="310" as="targetPoint" />
          </mxGeometry>
        </mxCell>
        <mxCell id="kskQlB_dkP9eEl7HwI4r-63" value="&lt;span style=&quot;color: rgba(0, 0, 0, 0); font-family: monospace; font-size: 0px; text-align: start; background-color: rgb(251, 251, 251);&quot;&gt;%3CmxGraphModel%3E%3Croot%3E%3CmxCell%20id%3D%220%22%2F%3E%3CmxCell%20id%3D%221%22%20parent%3D%220%22%2F%3E%3CmxCell%20id%3D%222%22%20value%3D%22%22%20style%3D%22endArrow%3Dnone%3Bhtml%3D1%3Brounded%3D0%3BstrokeWidth%3D6%3BfillColor%3D%23bac8d3%3BstrokeColor%3D%23BAC8D3%3BlabelBorderColor%3Ddefault%3BfontColor%3D%23FF99FF%3BtargetPerimeterSpacing%3D0%3B%22%20edge%3D%221%22%20parent%3D%221%22%3E%3CmxGeometry%20width%3D%2250%22%20height%3D%2250%22%20relative%3D%221%22%20as%3D%22geometry%22%3E%3CmxPoint%20x%3D%22409.5%22%20y%3D%22840%22%20as%3D%22sourcePoint%22%2F%3E%3CmxPoint%20x%3D%22409.5%22%20y%3D%22220%22%20as%3D%22targetPoint%22%2F%3E%3C%2FmxGeometry%3E%3C%2FmxCell%3E%3C%2Froot%3E%3C%2FmxGraphModel%3E&lt;/span&gt;&lt;span style=&quot;color: rgba(0, 0, 0, 0); font-family: monospace; font-size: 0px; text-align: start; background-color: rgb(251, 251, 251);&quot;&gt;%3CmxGraphModel%3E%3Croot%3E%3CmxCell%20id%3D%220%22%2F%3E%3CmxCell%20id%3D%221%22%20parent%3D%220%22%2F%3E%3CmxCell%20id%3D%222%22%20value%3D%22%22%20style%3D%22endArrow%3Dnone%3Bhtml%3D1%3Brounded%3D0%3BstrokeWidth%3D6%3BfillColor%3D%23bac8d3%3BstrokeColor%3D%23BAC8D3%3BlabelBorderColor%3Ddefault%3BfontColor%3D%23FF99FF%3BtargetPerimeterSpacing%3D0%3B%22%20edge%3D%221%22%20parent%3D%221%22%3E%3CmxGeometry%20width%3D%2250%22%20height%3D%2250%22%20relative%3D%221%22%20as%3D%22geometry%22%3E%3CmxPoint%20x%3D%22409.5%22%20y%3D%22840%22%20as%3D%22sourcePoint%22%2F%3E%3CmxPoint%20x%3D%22409.5%22%20y%3D%22220%22%20as%3D%22targetPoint%22%2F%3E%3C%2FmxGeometry%3E%3C%2FmxCell%3E%3C%2Froot%3E%3C%2FmxGraphModel%3E&lt;/span&gt;" style="endArrow=classic;html=1;rounded=0;" parent="1" edge="1">
          <mxGeometry width="50" height="50" relative="1" as="geometry">
            <mxPoint x="250" y="330" as="sourcePoint" />
            <mxPoint x="570" y="330" as="targetPoint" />
          </mxGeometry>
        </mxCell>
        <mxCell id="kskQlB_dkP9eEl7HwI4r-64" value="&lt;span style=&quot;color: rgb(0, 0, 0); font-size: 12px;&quot;&gt;1.2: init(ServletConfig)&lt;/span&gt;" style="text;html=1;align=center;verticalAlign=middle;whiteSpace=wrap;rounded=0;fontFamily=Helvetica;fontSize=11;fontColor=#FF99FF;labelBorderColor=none;labelBackgroundColor=default;" parent="1" vertex="1">
          <mxGeometry x="190.00333333333333" y="300" width="277.33333333333337" height="30" as="geometry" />
        </mxCell>
        <mxCell id="kskQlB_dkP9eEl7HwI4r-65" value="&lt;span style=&quot;color: rgba(0, 0, 0, 0); font-family: monospace; font-size: 0px; text-align: start; background-color: rgb(251, 251, 251);&quot;&gt;%3CmxGraphModel%3E%3Croot%3E%3CmxCell%20id%3D%220%22%2F%3E%3CmxCell%20id%3D%221%22%20parent%3D%220%22%2F%3E%3CmxCell%20id%3D%222%22%20value%3D%22%22%20style%3D%22endArrow%3Dnone%3Bhtml%3D1%3Brounded%3D0%3BstrokeWidth%3D6%3BfillColor%3D%23bac8d3%3BstrokeColor%3D%23BAC8D3%3BlabelBorderColor%3Ddefault%3BfontColor%3D%23FF99FF%3BtargetPerimeterSpacing%3D0%3B%22%20edge%3D%221%22%20parent%3D%221%22%3E%3CmxGeometry%20width%3D%2250%22%20height%3D%2250%22%20relative%3D%221%22%20as%3D%22geometry%22%3E%3CmxPoint%20x%3D%22409.5%22%20y%3D%22840%22%20as%3D%22sourcePoint%22%2F%3E%3CmxPoint%20x%3D%22409.5%22%20y%3D%22220%22%20as%3D%22targetPoint%22%2F%3E%3C%2FmxGeometry%3E%3C%2FmxCell%3E%3C%2Froot%3E%3C%2FmxGraphModel%3E&lt;/span&gt;&lt;span style=&quot;color: rgba(0, 0, 0, 0); font-family: monospace; font-size: 0px; text-align: start; background-color: rgb(251, 251, 251);&quot;&gt;%3CmxGraphModel%3E%3Croot%3E%3CmxCell%20id%3D%220%22%2F%3E%3CmxCell%20id%3D%221%22%20parent%3D%220%22%2F%3E%3CmxCell%20id%3D%222%22%20value%3D%22%22%20style%3D%22endArrow%3Dnone%3Bhtml%3D1%3Brounded%3D0%3BstrokeWidth%3D6%3BfillColor%3D%23bac8d3%3BstrokeColor%3D%23BAC8D3%3BlabelBorderColor%3Ddefault%3BfontColor%3D%23FF99FF%3BtargetPerimeterSpacing%3D0%3B%22%20edge%3D%221%22%20parent%3D%221%22%3E%3CmxGeometry%20width%3D%2250%22%20height%3D%2250%22%20relative%3D%221%22%20as%3D%22geometry%22%3E%3CmxPoint%20x%3D%22409.5%22%20y%3D%22840%22%20as%3D%22sourcePoint%22%2F%3E%3CmxPoint%20x%3D%22409.5%22%20y%3D%22220%22%20as%3D%22targetPoint%22%2F%3E%3C%2FmxGeometry%3E%3C%2FmxCell%3E%3C%2Froot%3E%3C%2FmxGraphModel%3E&lt;/span&gt;" style="endArrow=classic;html=1;rounded=0;dashed=1;strokeColor=none;dashPattern=8 8;" parent="1" edge="1">
          <mxGeometry width="50" height="50" relative="1" as="geometry">
            <mxPoint x="570" y="350" as="sourcePoint" />
            <mxPoint x="250" y="350" as="targetPoint" />
          </mxGeometry>
        </mxCell>
        <mxCell id="kskQlB_dkP9eEl7HwI4r-58" value="" style="endArrow=classic;html=1;rounded=0;dashed=1;dashPattern=8 8;" parent="1" edge="1">
          <mxGeometry width="50" height="50" relative="1" as="geometry">
            <mxPoint x="250" y="240" as="sourcePoint" />
            <mxPoint x="343.75" y="240" as="targetPoint" />
          </mxGeometry>
        </mxCell>
        <mxCell id="kskQlB_dkP9eEl7HwI4r-59" value="&lt;span style=&quot;color: rgb(0, 0, 0); font-size: 12px;&quot;&gt;1.1: Instantiate&lt;/span&gt;" style="text;html=1;align=center;verticalAlign=middle;whiteSpace=wrap;rounded=0;fontFamily=Helvetica;fontSize=11;fontColor=#FF99FF;labelBorderColor=none;labelBackgroundColor=default;" parent="1" vertex="1">
          <mxGeometry x="250" y="210" width="90" height="30" as="geometry" />
        </mxCell>
        <mxCell id="kskQlB_dkP9eEl7HwI4r-28" value="" style="group" parent="1" vertex="1" connectable="0">
          <mxGeometry x="350" y="210" width="140" height="60" as="geometry" />
        </mxCell>
        <mxCell id="kskQlB_dkP9eEl7HwI4r-29" value="" style="rounded=0;whiteSpace=wrap;html=1;fillColor=#bac8d3;strokeColor=#23445d;" parent="kskQlB_dkP9eEl7HwI4r-28" vertex="1">
          <mxGeometry width="140" height="60" as="geometry" />
        </mxCell>
        <mxCell id="kskQlB_dkP9eEl7HwI4r-30" value="LoginServlet" style="text;html=1;align=center;verticalAlign=middle;whiteSpace=wrap;rounded=0;fillColor=none;fontStyle=1;fontColor=#FFFFFF;fontSize=11;" parent="kskQlB_dkP9eEl7HwI4r-28" vertex="1">
          <mxGeometry x="31.888888888888886" y="15" width="76.22222222222221" height="30" as="geometry" />
        </mxCell>
        <mxCell id="kskQlB_dkP9eEl7HwI4r-66" value="&lt;span style=&quot;color: rgba(0, 0, 0, 0); font-family: monospace; font-size: 0px; text-align: start; background-color: rgb(251, 251, 251);&quot;&gt;%3CmxGraphModel%3E%3Croot%3E%3CmxCell%20id%3D%220%22%2F%3E%3CmxCell%20id%3D%221%22%20parent%3D%220%22%2F%3E%3CmxCell%20id%3D%222%22%20value%3D%22%22%20style%3D%22endArrow%3Dnone%3Bhtml%3D1%3Brounded%3D0%3BstrokeWidth%3D6%3BfillColor%3D%23bac8d3%3BstrokeColor%3D%23BAC8D3%3BlabelBorderColor%3Ddefault%3BfontColor%3D%23FF99FF%3BtargetPerimeterSpacing%3D0%3B%22%20edge%3D%221%22%20parent%3D%221%22%3E%3CmxGeometry%20width%3D%2250%22%20height%3D%2250%22%20relative%3D%221%22%20as%3D%22geometry%22%3E%3CmxPoint%20x%3D%22409.5%22%20y%3D%22840%22%20as%3D%22sourcePoint%22%2F%3E%3CmxPoint%20x%3D%22409.5%22%20y%3D%22220%22%20as%3D%22targetPoint%22%2F%3E%3C%2FmxGeometry%3E%3C%2FmxCell%3E%3C%2Froot%3E%3C%2FmxGraphModel%3E&lt;/span&gt;&lt;span style=&quot;color: rgba(0, 0, 0, 0); font-family: monospace; font-size: 0px; text-align: start; background-color: rgb(251, 251, 251);&quot;&gt;%3CmxGraphModel%3E%3Croot%3E%3CmxCell%20id%3D%220%22%2F%3E%3CmxCell%20id%3D%221%22%20parent%3D%220%22%2F%3E%3CmxCell%20id%3D%222%22%20value%3D%22%22%20style%3D%22endArrow%3Dnone%3Bhtml%3D1%3Brounded%3D0%3BstrokeWidth%3D6%3BfillColor%3D%23bac8d3%3BstrokeColor%3D%23BAC8D3%3BlabelBorderColor%3Ddefault%3BfontColor%3D%23FF99FF%3BtargetPerimeterSpacing%3D0%3B%22%20edge%3D%221%22%20parent%3D%221%22%3E%3CmxGeometry%20width%3D%2250%22%20height%3D%2250%22%20relative%3D%221%22%20as%3D%22geometry%22%3E%3CmxPoint%20x%3D%22409.5%22%20y%3D%22840%22%20as%3D%22sourcePoint%22%2F%3E%3CmxPoint%20x%3D%22409.5%22%20y%3D%22220%22%20as%3D%22targetPoint%22%2F%3E%3C%2FmxGeometry%3E%3C%2FmxCell%3E%3C%2Froot%3E%3C%2FmxGraphModel%3E&lt;/span&gt;" style="endArrow=classic;html=1;rounded=0;dashed=1;dashPattern=8 8;" parent="1" edge="1">
          <mxGeometry width="50" height="50" relative="1" as="geometry">
            <mxPoint x="565" y="380" as="sourcePoint" />
            <mxPoint x="250" y="380" as="targetPoint" />
          </mxGeometry>
        </mxCell>
        <mxCell id="kskQlB_dkP9eEl7HwI4r-67" value="&lt;span style=&quot;color: rgb(0, 0, 0); font-size: 12px;&quot;&gt;1.3: return&lt;/span&gt;" style="text;html=1;align=center;verticalAlign=middle;whiteSpace=wrap;rounded=0;fontFamily=Helvetica;fontSize=11;fontColor=#FF99FF;labelBorderColor=none;labelBackgroundColor=default;" parent="1" vertex="1">
          <mxGeometry x="283.67" y="350" width="90" height="30" as="geometry" />
        </mxCell>
        <mxCell id="kskQlB_dkP9eEl7HwI4r-73" value="" style="group" parent="1" vertex="1" connectable="0">
          <mxGeometry x="590" y="300" width="90" height="100" as="geometry" />
        </mxCell>
        <mxCell id="kskQlB_dkP9eEl7HwI4r-68" value="" style="shape=note;whiteSpace=wrap;html=1;backgroundOutline=1;darkOpacity=0.05;fontFamily=Helvetica;fontSize=11;labelBorderColor=default;labelBackgroundColor=default;strokeColor=#23445d;fillColor=#bac8d3;size=23;" parent="kskQlB_dkP9eEl7HwI4r-73" vertex="1">
          <mxGeometry width="90" height="100" as="geometry" />
        </mxCell>
        <mxCell id="kskQlB_dkP9eEl7HwI4r-69" value="&#xa;&lt;span style=&quot;font-family: Helvetica; font-size: 10px; font-style: normal; font-variant-ligatures: normal; font-variant-caps: normal; letter-spacing: normal; orphans: 2; text-indent: 0px; text-transform: none; widows: 2; word-spacing: 0px; -webkit-text-stroke-width: 0px; white-space: normal; text-decoration-thickness: initial; text-decoration-style: initial; text-decoration-color: initial; float: none; display: inline !important;&quot;&gt;Obtains the datasource from the JDNI context&lt;/span&gt;&#xa;&#xa;" style="text;html=1;align=center;verticalAlign=middle;whiteSpace=wrap;rounded=0;fontFamily=Helvetica;fontSize=10;labelBorderColor=none;labelBackgroundColor=#bac8d3;spacing=0;fillColor=#bac8d3;strokeColor=#23445d;fontColor=#ffffff;fontStyle=1" parent="kskQlB_dkP9eEl7HwI4r-73" vertex="1">
          <mxGeometry x="6" y="60" width="78" height="1" as="geometry" />
        </mxCell>
        <mxCell id="kskQlB_dkP9eEl7HwI4r-74" value="&lt;span style=&quot;color: rgba(0, 0, 0, 0); font-family: monospace; font-size: 0px; text-align: start; background-color: rgb(251, 251, 251);&quot;&gt;%3CmxGraphModel%3E%3Croot%3E%3CmxCell%20id%3D%220%22%2F%3E%3CmxCell%20id%3D%221%22%20parent%3D%220%22%2F%3E%3CmxCell%20id%3D%222%22%20value%3D%22%22%20style%3D%22endArrow%3Dnone%3Bhtml%3D1%3Brounded%3D0%3BstrokeWidth%3D6%3BfillColor%3D%23bac8d3%3BstrokeColor%3D%23BAC8D3%3BlabelBorderColor%3Ddefault%3BfontColor%3D%23FF99FF%3BtargetPerimeterSpacing%3D0%3B%22%20edge%3D%221%22%20parent%3D%221%22%3E%3CmxGeometry%20width%3D%2250%22%20height%3D%2250%22%20relative%3D%221%22%20as%3D%22geometry%22%3E%3CmxPoint%20x%3D%22409.5%22%20y%3D%22840%22%20as%3D%22sourcePoint%22%2F%3E%3CmxPoint%20x%3D%22409.5%22%20y%3D%22220%22%20as%3D%22targetPoint%22%2F%3E%3C%2FmxGeometry%3E%3C%2FmxCell%3E%3C%2Froot%3E%3C%2FmxGraphModel%3E&lt;/span&gt;&lt;span style=&quot;color: rgba(0, 0, 0, 0); font-family: monospace; font-size: 0px; text-align: start; background-color: rgb(251, 251, 251);&quot;&gt;%3CmxGraphModel%3E%3Croot%3E%3CmxCell%20id%3D%220%22%2F%3E%3CmxCell%20id%3D%221%22%20parent%3D%220%22%2F%3E%3CmxCell%20id%3D%222%22%20value%3D%22%22%20style%3D%22endArrow%3Dnone%3Bhtml%3D1%3Brounded%3D0%3BstrokeWidth%3D6%3BfillColor%3D%23bac8d3%3BstrokeColor%3D%23BAC8D3%3BlabelBorderColor%3Ddefault%3BfontColor%3D%23FF99FF%3BtargetPerimeterSpacing%3D0%3B%22%20edge%3D%221%22%20parent%3D%221%22%3E%3CmxGeometry%20width%3D%2250%22%20height%3D%2250%22%20relative%3D%221%22%20as%3D%22geometry%22%3E%3CmxPoint%20x%3D%22409.5%22%20y%3D%22840%22%20as%3D%22sourcePoint%22%2F%3E%3CmxPoint%20x%3D%22409.5%22%20y%3D%22220%22%20as%3D%22targetPoint%22%2F%3E%3C%2FmxGeometry%3E%3C%2FmxCell%3E%3C%2Froot%3E%3C%2FmxGraphModel%3E&lt;/span&gt;" style="endArrow=classic;html=1;rounded=0;" parent="1" edge="1">
          <mxGeometry width="50" height="50" relative="1" as="geometry">
            <mxPoint x="250" y="490" as="sourcePoint" />
            <mxPoint x="400" y="490" as="targetPoint" />
          </mxGeometry>
        </mxCell>
        <mxCell id="kskQlB_dkP9eEl7HwI4r-75" value="&lt;span style=&quot;color: rgb(0, 0, 0); font-size: 12px;&quot;&gt;1.4: service(ServletRequest,&amp;nbsp;&lt;/span&gt;&lt;div&gt;&lt;span style=&quot;color: rgb(0, 0, 0); font-size: 12px;&quot;&gt;ServletResponse)&lt;/span&gt;&lt;/div&gt;" style="text;html=1;align=center;verticalAlign=middle;whiteSpace=wrap;rounded=0;fontFamily=Helvetica;fontSize=11;fontColor=#FF99FF;labelBorderColor=none;labelBackgroundColor=default;" parent="1" vertex="1">
          <mxGeometry x="190" y="450" width="277.33" height="30" as="geometry" />
        </mxCell>
        <mxCell id="kskQlB_dkP9eEl7HwI4r-80" value="&lt;span style=&quot;color: rgba(0, 0, 0, 0); font-family: monospace; font-size: 0px; text-align: start; background-color: rgb(251, 251, 251);&quot;&gt;%3CmxGraphModel%3E%3Croot%3E%3CmxCell%20id%3D%220%22%2F%3E%3CmxCell%20id%3D%221%22%20parent%3D%220%22%2F%3E%3CmxCell%20id%3D%222%22%20value%3D%22%22%20style%3D%22endArrow%3Dnone%3Bhtml%3D1%3Brounded%3D0%3BstrokeWidth%3D6%3BfillColor%3D%23bac8d3%3BstrokeColor%3D%23BAC8D3%3BlabelBorderColor%3Ddefault%3BfontColor%3D%23FF99FF%3BtargetPerimeterSpacing%3D0%3B%22%20edge%3D%221%22%20parent%3D%221%22%3E%3CmxGeometry%20width%3D%2250%22%20height%3D%2250%22%20relative%3D%221%22%20as%3D%22geometry%22%3E%3CmxPoint%20x%3D%22409.5%22%20y%3D%22840%22%20as%3D%22sourcePoint%22%2F%3E%3CmxPoint%20x%3D%22409.5%22%20y%3D%22220%22%20as%3D%22targetPoint%22%2F%3E%3C%2FmxGeometry%3E%3C%2FmxCell%3E%3C%2Froot%3E%3C%2FmxGraphModel%3E&lt;/span&gt;&lt;span style=&quot;color: rgba(0, 0, 0, 0); font-family: monospace; font-size: 0px; text-align: start; background-color: rgb(251, 251, 251);&quot;&gt;%3CmxGraphModel%3E%3Croot%3E%3CmxCell%20id%3D%220%22%2F%3E%3CmxCell%20id%3D%221%22%20parent%3D%220%22%2F%3E%3CmxCell%20id%3D%222%22%20value%3D%22%22%20style%3D%22endArrow%3Dnone%3Bhtml%3D1%3Brounded%3D0%3BstrokeWidth%3D6%3BfillColor%3D%23bac8d3%3BstrokeColor%3D%23BAC8D3%3BlabelBorderColor%3Ddefault%3BfontColor%3D%23FF99FF%3BtargetPerimeterSpacing%3D0%3B%22%20edge%3D%221%22%20parent%3D%221%22%3E%3CmxGeometry%20width%3D%2250%22%20height%3D%2250%22%20relative%3D%221%22%20as%3D%22geometry%22%3E%3CmxPoint%20x%3D%22409.5%22%20y%3D%22840%22%20as%3D%22sourcePoint%22%2F%3E%3CmxPoint%20x%3D%22409.5%22%20y%3D%22220%22%20as%3D%22targetPoint%22%2F%3E%3C%2FmxGeometry%3E%3C%2FmxCell%3E%3C%2Froot%3E%3C%2FmxGraphModel%3E&lt;/span&gt;" style="endArrow=classic;html=1;rounded=0;" parent="1" edge="1">
          <mxGeometry x="0.023" y="-10" width="50" height="50" relative="1" as="geometry">
            <mxPoint x="410" y="530" as="sourcePoint" />
            <mxPoint x="410" y="550" as="targetPoint" />
            <Array as="points">
              <mxPoint x="445" y="530" />
              <mxPoint x="445" y="550" />
            </Array>
            <mxPoint as="offset" />
          </mxGeometry>
        </mxCell>
        <mxCell id="kskQlB_dkP9eEl7HwI4r-81" value="&lt;span style=&quot;font-family: Helvetica; font-style: normal; font-variant-ligatures: normal; font-variant-caps: normal; font-weight: 400; letter-spacing: normal; orphans: 2; text-align: center; text-indent: 0px; text-transform: none; widows: 2; word-spacing: 0px; -webkit-text-stroke-width: 0px; white-space: normal; text-decoration-thickness: initial; text-decoration-style: initial; text-decoration-color: initial; color: rgb(0, 0, 0); font-size: 12px;&quot;&gt;1.4.1: doPost(HttpServletRequest,&amp;nbsp;&lt;/span&gt;&lt;span style=&quot;color: rgb(0, 0, 0); font-size: 12px; text-align: center;&quot;&gt;HttpServletResponse)&lt;/span&gt;" style="text;whiteSpace=wrap;html=1;fontFamily=Helvetica;fontSize=11;fontColor=#FF99FF;labelBorderColor=none;labelBackgroundColor=default;" parent="1" vertex="1">
          <mxGeometry x="450" y="525" width="310" height="50" as="geometry" />
        </mxCell>
        <mxCell id="kskQlB_dkP9eEl7HwI4r-83" value="&lt;span style=&quot;color: rgba(0, 0, 0, 0); font-family: monospace; font-size: 0px; text-align: start; background-color: rgb(251, 251, 251);&quot;&gt;%3CmxGraphModel%3E%3Croot%3E%3CmxCell%20id%3D%220%22%2F%3E%3CmxCell%20id%3D%221%22%20parent%3D%220%22%2F%3E%3CmxCell%20id%3D%222%22%20value%3D%22%22%20style%3D%22endArrow%3Dnone%3Bhtml%3D1%3Brounded%3D0%3BstrokeWidth%3D6%3BfillColor%3D%23bac8d3%3BstrokeColor%3D%23BAC8D3%3BlabelBorderColor%3Ddefault%3BfontColor%3D%23FF99FF%3BtargetPerimeterSpacing%3D0%3B%22%20edge%3D%221%22%20parent%3D%221%22%3E%3CmxGeometry%20width%3D%2250%22%20height%3D%2250%22%20relative%3D%221%22%20as%3D%22geometry%22%3E%3CmxPoint%20x%3D%22409.5%22%20y%3D%22840%22%20as%3D%22sourcePoint%22%2F%3E%3CmxPoint%20x%3D%22409.5%22%20y%3D%22220%22%20as%3D%22targetPoint%22%2F%3E%3C%2FmxGeometry%3E%3C%2FmxCell%3E%3C%2Froot%3E%3C%2FmxGraphModel%3E&lt;/span&gt;&lt;span style=&quot;color: rgba(0, 0, 0, 0); font-family: monospace; font-size: 0px; text-align: start; background-color: rgb(251, 251, 251);&quot;&gt;%3CmxGraphModel%3E%3Croot%3E%3CmxCell%20id%3D%220%22%2F%3E%3CmxCell%20id%3D%221%22%20parent%3D%220%22%2F%3E%3CmxCell%20id%3D%222%22%20value%3D%22%22%20style%3D%22endArrow%3Dnone%3Bhtml%3D1%3Brounded%3D0%3BstrokeWidth%3D6%3BfillColor%3D%23bac8d3%3BstrokeColor%3D%23BAC8D3%3BlabelBorderColor%3Ddefault%3BfontColor%3D%23FF99FF%3BtargetPerimeterSpacing%3D0%3B%22%20edge%3D%221%22%20parent%3D%221%22%3E%3CmxGeometry%20width%3D%2250%22%20height%3D%2250%22%20relative%3D%221%22%20as%3D%22geometry%22%3E%3CmxPoint%20x%3D%22409.5%22%20y%3D%22840%22%20as%3D%22sourcePoint%22%2F%3E%3CmxPoint%20x%3D%22409.5%22%20y%3D%22220%22%20as%3D%22targetPoint%22%2F%3E%3C%2FmxGeometry%3E%3C%2FmxCell%3E%3C%2Froot%3E%3C%2FmxGraphModel%3E&lt;/span&gt;" style="endArrow=classic;html=1;rounded=0;" parent="1" edge="1">
          <mxGeometry x="0.023" y="-10" width="50" height="50" relative="1" as="geometry">
            <mxPoint x="408" y="580" as="sourcePoint" />
            <mxPoint x="408" y="600" as="targetPoint" />
            <Array as="points">
              <mxPoint x="443" y="580" />
              <mxPoint x="443" y="600" />
            </Array>
            <mxPoint as="offset" />
          </mxGeometry>
        </mxCell>
        <mxCell id="kskQlB_dkP9eEl7HwI4r-84" value="&lt;span style=&quot;font-family: Helvetica; font-style: normal; font-variant-ligatures: normal; font-variant-caps: normal; font-weight: 400; letter-spacing: normal; orphans: 2; text-align: center; text-indent: 0px; text-transform: none; widows: 2; word-spacing: 0px; -webkit-text-stroke-width: 0px; white-space: normal; text-decoration-thickness: initial; text-decoration-style: initial; text-decoration-color: initial; color: rgb(0, 0, 0); font-size: 12px;&quot;&gt;1.4.2: getConnection()&lt;/span&gt;" style="text;whiteSpace=wrap;html=1;fontFamily=Helvetica;fontSize=11;fontColor=#FF99FF;labelBorderColor=none;labelBackgroundColor=default;" parent="1" vertex="1">
          <mxGeometry x="450" y="580" width="190" height="30" as="geometry" />
        </mxCell>
        <mxCell id="kskQlB_dkP9eEl7HwI4r-85" value="&lt;span style=&quot;color: rgba(0, 0, 0, 0); font-family: monospace; font-size: 0px; text-align: start; background-color: rgb(251, 251, 251);&quot;&gt;%3CmxGraphModel%3E%3Croot%3E%3CmxCell%20id%3D%220%22%2F%3E%3CmxCell%20id%3D%221%22%20parent%3D%220%22%2F%3E%3CmxCell%20id%3D%222%22%20value%3D%22%22%20style%3D%22endArrow%3Dnone%3Bhtml%3D1%3Brounded%3D0%3BstrokeWidth%3D6%3BfillColor%3D%23bac8d3%3BstrokeColor%3D%23BAC8D3%3BlabelBorderColor%3Ddefault%3BfontColor%3D%23FF99FF%3BtargetPerimeterSpacing%3D0%3B%22%20edge%3D%221%22%20parent%3D%221%22%3E%3CmxGeometry%20width%3D%2250%22%20height%3D%2250%22%20relative%3D%221%22%20as%3D%22geometry%22%3E%3CmxPoint%20x%3D%22409.5%22%20y%3D%22840%22%20as%3D%22sourcePoint%22%2F%3E%3CmxPoint%20x%3D%22409.5%22%20y%3D%22220%22%20as%3D%22targetPoint%22%2F%3E%3C%2FmxGeometry%3E%3C%2FmxCell%3E%3C%2Froot%3E%3C%2FmxGraphModel%3E&lt;/span&gt;&lt;span style=&quot;color: rgba(0, 0, 0, 0); font-family: monospace; font-size: 0px; text-align: start; background-color: rgb(251, 251, 251);&quot;&gt;%3CmxGraphModel%3E%3Croot%3E%3CmxCell%20id%3D%220%22%2F%3E%3CmxCell%20id%3D%221%22%20parent%3D%220%22%2F%3E%3CmxCell%20id%3D%222%22%20value%3D%22%22%20style%3D%22endArrow%3Dnone%3Bhtml%3D1%3Brounded%3D0%3BstrokeWidth%3D6%3BfillColor%3D%23bac8d3%3BstrokeColor%3D%23BAC8D3%3BlabelBorderColor%3Ddefault%3BfontColor%3D%23FF99FF%3BtargetPerimeterSpacing%3D0%3B%22%20edge%3D%221%22%20parent%3D%221%22%3E%3CmxGeometry%20width%3D%2250%22%20height%3D%2250%22%20relative%3D%221%22%20as%3D%22geometry%22%3E%3CmxPoint%20x%3D%22409.5%22%20y%3D%22840%22%20as%3D%22sourcePoint%22%2F%3E%3CmxPoint%20x%3D%22409.5%22%20y%3D%22220%22%20as%3D%22targetPoint%22%2F%3E%3C%2FmxGeometry%3E%3C%2FmxCell%3E%3C%2Froot%3E%3C%2FmxGraphModel%3E&lt;/span&gt;" style="endArrow=classic;html=1;rounded=0;dashed=1;dashPattern=8 8;" parent="1" edge="1">
          <mxGeometry width="50" height="50" relative="1" as="geometry">
            <mxPoint x="410" y="660" as="sourcePoint" />
            <mxPoint x="702.67" y="659.91" as="targetPoint" />
          </mxGeometry>
        </mxCell>
        <mxCell id="kskQlB_dkP9eEl7HwI4r-86" value="" style="group" parent="1" vertex="1" connectable="0">
          <mxGeometry x="720" y="630" width="140" height="60" as="geometry" />
        </mxCell>
        <mxCell id="kskQlB_dkP9eEl7HwI4r-87" value="" style="rounded=0;whiteSpace=wrap;html=1;fillColor=#bac8d3;strokeColor=#23445d;" parent="kskQlB_dkP9eEl7HwI4r-86" vertex="1">
          <mxGeometry x="-10" width="140" height="60" as="geometry" />
        </mxCell>
        <mxCell id="kskQlB_dkP9eEl7HwI4r-88" value="LoginDAO" style="text;html=1;align=center;verticalAlign=middle;whiteSpace=wrap;rounded=0;fillColor=none;fontStyle=1;fontColor=#FFFFFF;fontSize=11;" parent="kskQlB_dkP9eEl7HwI4r-86" vertex="1">
          <mxGeometry x="21.888888888888886" y="15" width="76.22222222222221" height="30" as="geometry" />
        </mxCell>
        <mxCell id="kskQlB_dkP9eEl7HwI4r-89" value="&lt;span style=&quot;font-family: Helvetica; font-style: normal; font-variant-ligatures: normal; font-variant-caps: normal; font-weight: 400; letter-spacing: normal; orphans: 2; text-align: center; text-indent: 0px; text-transform: none; widows: 2; word-spacing: 0px; -webkit-text-stroke-width: 0px; white-space: normal; text-decoration-thickness: initial; text-decoration-style: initial; text-decoration-color: initial; color: rgb(0, 0, 0); font-size: 12px;&quot;&gt;1.4.3: new LoginDAO(Connection,&amp;nbsp;&lt;/span&gt;&lt;span style=&quot;color: rgb(0, 0, 0); font-size: 12px; text-align: center;&quot;&gt;email, password)&lt;/span&gt;" style="text;whiteSpace=wrap;html=1;fontFamily=Helvetica;fontSize=11;fontColor=#FF99FF;labelBorderColor=none;labelBackgroundColor=default;" parent="kskQlB_dkP9eEl7HwI4r-86" vertex="1">
          <mxGeometry x="-300" width="340" height="30" as="geometry" />
        </mxCell>
        <mxCell id="kskQlB_dkP9eEl7HwI4r-90" value="" style="endArrow=none;html=1;rounded=0;strokeWidth=6;fillColor=#bac8d3;strokeColor=#BAC8D3;labelBorderColor=default;fontColor=#FF99FF;targetPerimeterSpacing=0;entryX=0.906;entryY=-0.038;entryDx=0;entryDy=0;entryPerimeter=0;" parent="1" target="kskQlB_dkP9eEl7HwI4r-93" edge="1">
          <mxGeometry width="50" height="50" relative="1" as="geometry">
            <mxPoint x="781" y="1070" as="sourcePoint" />
            <mxPoint x="780.5" y="710" as="targetPoint" />
            <Array as="points" />
          </mxGeometry>
        </mxCell>
        <mxCell id="kskQlB_dkP9eEl7HwI4r-91" value="" style="endArrow=none;html=1;rounded=0;strokeWidth=6;fillColor=#bac8d3;strokeColor=#BAC8D3;labelBorderColor=default;fontColor=#FF99FF;targetPerimeterSpacing=0;" parent="1" edge="1">
          <mxGeometry width="50" height="50" relative="1" as="geometry">
            <mxPoint x="980" y="1210" as="sourcePoint" />
            <mxPoint x="979.5" y="710" as="targetPoint" />
            <Array as="points" />
          </mxGeometry>
        </mxCell>
        <mxCell id="kskQlB_dkP9eEl7HwI4r-92" value="&lt;span style=&quot;color: rgba(0, 0, 0, 0); font-family: monospace; font-size: 0px; text-align: start; background-color: rgb(251, 251, 251);&quot;&gt;%3CmxGraphModel%3E%3Croot%3E%3CmxCell%20id%3D%220%22%2F%3E%3CmxCell%20id%3D%221%22%20parent%3D%220%22%2F%3E%3CmxCell%20id%3D%222%22%20value%3D%22%22%20style%3D%22endArrow%3Dnone%3Bhtml%3D1%3Brounded%3D0%3BstrokeWidth%3D6%3BfillColor%3D%23bac8d3%3BstrokeColor%3D%23BAC8D3%3BlabelBorderColor%3Ddefault%3BfontColor%3D%23FF99FF%3BtargetPerimeterSpacing%3D0%3B%22%20edge%3D%221%22%20parent%3D%221%22%3E%3CmxGeometry%20width%3D%2250%22%20height%3D%2250%22%20relative%3D%221%22%20as%3D%22geometry%22%3E%3CmxPoint%20x%3D%22409.5%22%20y%3D%22840%22%20as%3D%22sourcePoint%22%2F%3E%3CmxPoint%20x%3D%22409.5%22%20y%3D%22220%22%20as%3D%22targetPoint%22%2F%3E%3C%2FmxGeometry%3E%3C%2FmxCell%3E%3C%2Froot%3E%3C%2FmxGraphModel%3E&lt;/span&gt;&lt;span style=&quot;color: rgba(0, 0, 0, 0); font-family: monospace; font-size: 0px; text-align: start; background-color: rgb(251, 251, 251);&quot;&gt;%3CmxGraphModel%3E%3Croot%3E%3CmxCell%20id%3D%220%22%2F%3E%3CmxCell%20id%3D%221%22%20parent%3D%220%22%2F%3E%3CmxCell%20id%3D%222%22%20value%3D%22%22%20style%3D%22endArrow%3Dnone%3Bhtml%3D1%3Brounded%3D0%3BstrokeWidth%3D6%3BfillColor%3D%23bac8d3%3BstrokeColor%3D%23BAC8D3%3BlabelBorderColor%3Ddefault%3BfontColor%3D%23FF99FF%3BtargetPerimeterSpacing%3D0%3B%22%20edge%3D%221%22%20parent%3D%221%22%3E%3CmxGeometry%20width%3D%2250%22%20height%3D%2250%22%20relative%3D%221%22%20as%3D%22geometry%22%3E%3CmxPoint%20x%3D%22409.5%22%20y%3D%22840%22%20as%3D%22sourcePoint%22%2F%3E%3CmxPoint%20x%3D%22409.5%22%20y%3D%22220%22%20as%3D%22targetPoint%22%2F%3E%3C%2FmxGeometry%3E%3C%2FmxCell%3E%3C%2Froot%3E%3C%2FmxGraphModel%3E&lt;/span&gt;" style="endArrow=classic;html=1;rounded=0;" parent="1" edge="1">
          <mxGeometry width="50" height="50" relative="1" as="geometry">
            <mxPoint x="410" y="750" as="sourcePoint" />
            <mxPoint x="980" y="750" as="targetPoint" />
          </mxGeometry>
        </mxCell>
        <mxCell id="kskQlB_dkP9eEl7HwI4r-93" value="&lt;span style=&quot;color: rgb(0, 0, 0); font-size: 12px;&quot;&gt;1.4.4: access(&lt;/span&gt;&lt;span style=&quot;color: rgb(0, 0, 0); font-size: 12px;&quot;&gt;)&lt;/span&gt;" style="text;html=1;align=center;verticalAlign=middle;whiteSpace=wrap;rounded=0;fontFamily=Helvetica;fontSize=11;fontColor=#FF99FF;labelBorderColor=none;labelBackgroundColor=default;" parent="1" vertex="1">
          <mxGeometry x="530" y="720" width="277.33" height="30" as="geometry" />
        </mxCell>
        <mxCell id="kskQlB_dkP9eEl7HwI4r-94" value="&lt;span style=&quot;color: rgba(0, 0, 0, 0); font-family: monospace; font-size: 0px; text-align: start; background-color: rgb(251, 251, 251);&quot;&gt;%3CmxGraphModel%3E%3Croot%3E%3CmxCell%20id%3D%220%22%2F%3E%3CmxCell%20id%3D%221%22%20parent%3D%220%22%2F%3E%3CmxCell%20id%3D%222%22%20value%3D%22%22%20style%3D%22endArrow%3Dnone%3Bhtml%3D1%3Brounded%3D0%3BstrokeWidth%3D6%3BfillColor%3D%23bac8d3%3BstrokeColor%3D%23BAC8D3%3BlabelBorderColor%3Ddefault%3BfontColor%3D%23FF99FF%3BtargetPerimeterSpacing%3D0%3B%22%20edge%3D%221%22%20parent%3D%221%22%3E%3CmxGeometry%20width%3D%2250%22%20height%3D%2250%22%20relative%3D%221%22%20as%3D%22geometry%22%3E%3CmxPoint%20x%3D%22409.5%22%20y%3D%22840%22%20as%3D%22sourcePoint%22%2F%3E%3CmxPoint%20x%3D%22409.5%22%20y%3D%22220%22%20as%3D%22targetPoint%22%2F%3E%3C%2FmxGeometry%3E%3C%2FmxCell%3E%3C%2Froot%3E%3C%2FmxGraphModel%3E&lt;/span&gt;&lt;span style=&quot;color: rgba(0, 0, 0, 0); font-family: monospace; font-size: 0px; text-align: start; background-color: rgb(251, 251, 251);&quot;&gt;%3CmxGraphModel%3E%3Croot%3E%3CmxCell%20id%3D%220%22%2F%3E%3CmxCell%20id%3D%221%22%20parent%3D%220%22%2F%3E%3CmxCell%20id%3D%222%22%20value%3D%22%22%20style%3D%22endArrow%3Dnone%3Bhtml%3D1%3Brounded%3D0%3BstrokeWidth%3D6%3BfillColor%3D%23bac8d3%3BstrokeColor%3D%23BAC8D3%3BlabelBorderColor%3Ddefault%3BfontColor%3D%23FF99FF%3BtargetPerimeterSpacing%3D0%3B%22%20edge%3D%221%22%20parent%3D%221%22%3E%3CmxGeometry%20width%3D%2250%22%20height%3D%2250%22%20relative%3D%221%22%20as%3D%22geometry%22%3E%3CmxPoint%20x%3D%22409.5%22%20y%3D%22840%22%20as%3D%22sourcePoint%22%2F%3E%3CmxPoint%20x%3D%22409.5%22%20y%3D%22220%22%20as%3D%22targetPoint%22%2F%3E%3C%2FmxGeometry%3E%3C%2FmxCell%3E%3C%2Froot%3E%3C%2FmxGraphModel%3E&lt;/span&gt;" style="endArrow=classic;html=1;rounded=0;" parent="1" edge="1">
          <mxGeometry width="50" height="50" relative="1" as="geometry">
            <mxPoint x="978.66" y="790" as="sourcePoint" />
            <mxPoint x="778.66" y="790" as="targetPoint" />
          </mxGeometry>
        </mxCell>
        <mxCell id="kskQlB_dkP9eEl7HwI4r-95" value="&lt;span style=&quot;color: rgb(0, 0, 0); font-size: 12px;&quot;&gt;1.4.4.1: doAccess(&lt;/span&gt;&lt;span style=&quot;color: rgb(0, 0, 0); font-size: 12px;&quot;&gt;)&lt;/span&gt;" style="text;html=1;align=center;verticalAlign=middle;whiteSpace=wrap;rounded=0;fontFamily=Helvetica;fontSize=11;fontColor=#FF99FF;labelBorderColor=none;labelBackgroundColor=default;" parent="1" vertex="1">
          <mxGeometry x="740" y="760" width="277.33" height="30" as="geometry" />
        </mxCell>
        <mxCell id="kskQlB_dkP9eEl7HwI4r-98" value="" style="endArrow=none;html=1;rounded=0;strokeWidth=6;fillColor=#bac8d3;strokeColor=#BAC8D3;labelBorderColor=default;fontColor=#FF99FF;targetPerimeterSpacing=0;" parent="1" edge="1">
          <mxGeometry width="50" height="50" relative="1" as="geometry">
            <mxPoint x="1235" y="880" as="sourcePoint" />
            <mxPoint x="1234.5" y="800" as="targetPoint" />
          </mxGeometry>
        </mxCell>
        <mxCell id="kskQlB_dkP9eEl7HwI4r-99" value="&lt;span style=&quot;color: rgb(0, 0, 0); font-size: 12px;&quot;&gt;1.4.4.1.1: execute SELECT statement&lt;/span&gt;" style="text;html=1;align=center;verticalAlign=middle;whiteSpace=wrap;rounded=0;fontFamily=Helvetica;fontSize=11;fontColor=#FF99FF;labelBorderColor=none;labelBackgroundColor=default;" parent="1" vertex="1">
          <mxGeometry x="960" y="800" width="277.33" height="30" as="geometry" />
        </mxCell>
        <mxCell id="kskQlB_dkP9eEl7HwI4r-100" value="&lt;span style=&quot;color: rgba(0, 0, 0, 0); font-family: monospace; font-size: 0px; text-align: start; background-color: rgb(251, 251, 251);&quot;&gt;%3CmxGraphModel%3E%3Croot%3E%3CmxCell%20id%3D%220%22%2F%3E%3CmxCell%20id%3D%221%22%20parent%3D%220%22%2F%3E%3CmxCell%20id%3D%222%22%20value%3D%22%22%20style%3D%22endArrow%3Dnone%3Bhtml%3D1%3Brounded%3D0%3BstrokeWidth%3D6%3BfillColor%3D%23bac8d3%3BstrokeColor%3D%23BAC8D3%3BlabelBorderColor%3Ddefault%3BfontColor%3D%23FF99FF%3BtargetPerimeterSpacing%3D0%3B%22%20edge%3D%221%22%20parent%3D%221%22%3E%3CmxGeometry%20width%3D%2250%22%20height%3D%2250%22%20relative%3D%221%22%20as%3D%22geometry%22%3E%3CmxPoint%20x%3D%22409.5%22%20y%3D%22840%22%20as%3D%22sourcePoint%22%2F%3E%3CmxPoint%20x%3D%22409.5%22%20y%3D%22220%22%20as%3D%22targetPoint%22%2F%3E%3C%2FmxGeometry%3E%3C%2FmxCell%3E%3C%2Froot%3E%3C%2FmxGraphModel%3E&lt;/span&gt;&lt;span style=&quot;color: rgba(0, 0, 0, 0); font-family: monospace; font-size: 0px; text-align: start; background-color: rgb(251, 251, 251);&quot;&gt;%3CmxGraphModel%3E%3Croot%3E%3CmxCell%20id%3D%220%22%2F%3E%3CmxCell%20id%3D%221%22%20parent%3D%220%22%2F%3E%3CmxCell%20id%3D%222%22%20value%3D%22%22%20style%3D%22endArrow%3Dnone%3Bhtml%3D1%3Brounded%3D0%3BstrokeWidth%3D6%3BfillColor%3D%23bac8d3%3BstrokeColor%3D%23BAC8D3%3BlabelBorderColor%3Ddefault%3BfontColor%3D%23FF99FF%3BtargetPerimeterSpacing%3D0%3B%22%20edge%3D%221%22%20parent%3D%221%22%3E%3CmxGeometry%20width%3D%2250%22%20height%3D%2250%22%20relative%3D%221%22%20as%3D%22geometry%22%3E%3CmxPoint%20x%3D%22409.5%22%20y%3D%22840%22%20as%3D%22sourcePoint%22%2F%3E%3CmxPoint%20x%3D%22409.5%22%20y%3D%22220%22%20as%3D%22targetPoint%22%2F%3E%3C%2FmxGeometry%3E%3C%2FmxCell%3E%3C%2Froot%3E%3C%2FmxGraphModel%3E&lt;/span&gt;" style="endArrow=classic;html=1;rounded=0;" parent="1" edge="1">
          <mxGeometry width="50" height="50" relative="1" as="geometry">
            <mxPoint x="780" y="830" as="sourcePoint" />
            <mxPoint x="1230" y="830" as="targetPoint" />
          </mxGeometry>
        </mxCell>
        <mxCell id="kskQlB_dkP9eEl7HwI4r-101" value="&lt;span style=&quot;color: rgb(0, 0, 0); font-size: 12px;&quot;&gt;1.4.4.1.2: return&lt;/span&gt;" style="text;html=1;align=center;verticalAlign=middle;whiteSpace=wrap;rounded=0;fontFamily=Helvetica;fontSize=11;fontColor=#FF99FF;labelBorderColor=none;labelBackgroundColor=default;" parent="1" vertex="1">
          <mxGeometry x="960" y="840" width="277.33" height="30" as="geometry" />
        </mxCell>
        <mxCell id="kskQlB_dkP9eEl7HwI4r-102" value="&lt;span style=&quot;color: rgba(0, 0, 0, 0); font-family: monospace; font-size: 0px; text-align: start; background-color: rgb(251, 251, 251);&quot;&gt;%3CmxGraphModel%3E%3Croot%3E%3CmxCell%20id%3D%220%22%2F%3E%3CmxCell%20id%3D%221%22%20parent%3D%220%22%2F%3E%3CmxCell%20id%3D%222%22%20value%3D%22%22%20style%3D%22endArrow%3Dnone%3Bhtml%3D1%3Brounded%3D0%3BstrokeWidth%3D6%3BfillColor%3D%23bac8d3%3BstrokeColor%3D%23BAC8D3%3BlabelBorderColor%3Ddefault%3BfontColor%3D%23FF99FF%3BtargetPerimeterSpacing%3D0%3B%22%20edge%3D%221%22%20parent%3D%221%22%3E%3CmxGeometry%20width%3D%2250%22%20height%3D%2250%22%20relative%3D%221%22%20as%3D%22geometry%22%3E%3CmxPoint%20x%3D%22409.5%22%20y%3D%22840%22%20as%3D%22sourcePoint%22%2F%3E%3CmxPoint%20x%3D%22409.5%22%20y%3D%22220%22%20as%3D%22targetPoint%22%2F%3E%3C%2FmxGeometry%3E%3C%2FmxCell%3E%3C%2Froot%3E%3C%2FmxGraphModel%3E&lt;/span&gt;&lt;span style=&quot;color: rgba(0, 0, 0, 0); font-family: monospace; font-size: 0px; text-align: start; background-color: rgb(251, 251, 251);&quot;&gt;%3CmxGraphModel%3E%3Croot%3E%3CmxCell%20id%3D%220%22%2F%3E%3CmxCell%20id%3D%221%22%20parent%3D%220%22%2F%3E%3CmxCell%20id%3D%222%22%20value%3D%22%22%20style%3D%22endArrow%3Dnone%3Bhtml%3D1%3Brounded%3D0%3BstrokeWidth%3D6%3BfillColor%3D%23bac8d3%3BstrokeColor%3D%23BAC8D3%3BlabelBorderColor%3Ddefault%3BfontColor%3D%23FF99FF%3BtargetPerimeterSpacing%3D0%3B%22%20edge%3D%221%22%20parent%3D%221%22%3E%3CmxGeometry%20width%3D%2250%22%20height%3D%2250%22%20relative%3D%221%22%20as%3D%22geometry%22%3E%3CmxPoint%20x%3D%22409.5%22%20y%3D%22840%22%20as%3D%22sourcePoint%22%2F%3E%3CmxPoint%20x%3D%22409.5%22%20y%3D%22220%22%20as%3D%22targetPoint%22%2F%3E%3C%2FmxGeometry%3E%3C%2FmxCell%3E%3C%2Froot%3E%3C%2FmxGraphModel%3E&lt;/span&gt;" style="endArrow=classic;html=1;rounded=0;dashed=1;dashPattern=8 8;" parent="1" edge="1">
          <mxGeometry width="50" height="50" relative="1" as="geometry">
            <mxPoint x="1227.33" y="870" as="sourcePoint" />
            <mxPoint x="777.33" y="870" as="targetPoint" />
          </mxGeometry>
        </mxCell>
        <mxCell id="kskQlB_dkP9eEl7HwI4r-105" value="&lt;span style=&quot;color: rgba(0, 0, 0, 0); font-family: monospace; font-size: 0px; text-align: start; background-color: rgb(251, 251, 251);&quot;&gt;%3CmxGraphModel%3E%3Croot%3E%3CmxCell%20id%3D%220%22%2F%3E%3CmxCell%20id%3D%221%22%20parent%3D%220%22%2F%3E%3CmxCell%20id%3D%222%22%20value%3D%22%22%20style%3D%22endArrow%3Dnone%3Bhtml%3D1%3Brounded%3D0%3BstrokeWidth%3D6%3BfillColor%3D%23bac8d3%3BstrokeColor%3D%23BAC8D3%3BlabelBorderColor%3Ddefault%3BfontColor%3D%23FF99FF%3BtargetPerimeterSpacing%3D0%3B%22%20edge%3D%221%22%20parent%3D%221%22%3E%3CmxGeometry%20width%3D%2250%22%20height%3D%2250%22%20relative%3D%221%22%20as%3D%22geometry%22%3E%3CmxPoint%20x%3D%22409.5%22%20y%3D%22840%22%20as%3D%22sourcePoint%22%2F%3E%3CmxPoint%20x%3D%22409.5%22%20y%3D%22220%22%20as%3D%22targetPoint%22%2F%3E%3C%2FmxGeometry%3E%3C%2FmxCell%3E%3C%2Froot%3E%3C%2FmxGraphModel%3E&lt;/span&gt;&lt;span style=&quot;color: rgba(0, 0, 0, 0); font-family: monospace; font-size: 0px; text-align: start; background-color: rgb(251, 251, 251);&quot;&gt;%3CmxGraphModel%3E%3Croot%3E%3CmxCell%20id%3D%220%22%2F%3E%3CmxCell%20id%3D%221%22%20parent%3D%220%22%2F%3E%3CmxCell%20id%3D%222%22%20value%3D%22%22%20style%3D%22endArrow%3Dnone%3Bhtml%3D1%3Brounded%3D0%3BstrokeWidth%3D6%3BfillColor%3D%23bac8d3%3BstrokeColor%3D%23BAC8D3%3BlabelBorderColor%3Ddefault%3BfontColor%3D%23FF99FF%3BtargetPerimeterSpacing%3D0%3B%22%20edge%3D%221%22%20parent%3D%221%22%3E%3CmxGeometry%20width%3D%2250%22%20height%3D%2250%22%20relative%3D%221%22%20as%3D%22geometry%22%3E%3CmxPoint%20x%3D%22409.5%22%20y%3D%22840%22%20as%3D%22sourcePoint%22%2F%3E%3CmxPoint%20x%3D%22409.5%22%20y%3D%22220%22%20as%3D%22targetPoint%22%2F%3E%3C%2FmxGeometry%3E%3C%2FmxCell%3E%3C%2Froot%3E%3C%2FmxGraphModel%3E&lt;/span&gt;" style="endArrow=classic;html=1;rounded=0;" parent="1" edge="1">
          <mxGeometry x="0.023" y="-10" width="50" height="50" relative="1" as="geometry">
            <mxPoint x="408" y="1320" as="sourcePoint" />
            <mxPoint x="408" y="1340" as="targetPoint" />
            <Array as="points">
              <mxPoint x="443" y="1320" />
              <mxPoint x="443" y="1340" />
            </Array>
            <mxPoint as="offset" />
          </mxGeometry>
        </mxCell>
        <mxCell id="kskQlB_dkP9eEl7HwI4r-106" value="&lt;span style=&quot;color: rgba(0, 0, 0, 0); font-family: monospace; font-size: 0px; text-align: start; background-color: rgb(251, 251, 251);&quot;&gt;%3CmxGraphModel%3E%3Croot%3E%3CmxCell%20id%3D%220%22%2F%3E%3CmxCell%20id%3D%221%22%20parent%3D%220%22%2F%3E%3CmxCell%20id%3D%222%22%20value%3D%22%22%20style%3D%22endArrow%3Dnone%3Bhtml%3D1%3Brounded%3D0%3BstrokeWidth%3D6%3BfillColor%3D%23bac8d3%3BstrokeColor%3D%23BAC8D3%3BlabelBorderColor%3Ddefault%3BfontColor%3D%23FF99FF%3BtargetPerimeterSpacing%3D0%3B%22%20edge%3D%221%22%20parent%3D%221%22%3E%3CmxGeometry%20width%3D%2250%22%20height%3D%2250%22%20relative%3D%221%22%20as%3D%22geometry%22%3E%3CmxPoint%20x%3D%22409.5%22%20y%3D%22840%22%20as%3D%22sourcePoint%22%2F%3E%3CmxPoint%20x%3D%22409.5%22%20y%3D%22220%22%20as%3D%22targetPoint%22%2F%3E%3C%2FmxGeometry%3E%3C%2FmxCell%3E%3C%2Froot%3E%3C%2FmxGraphModel%3E&lt;/span&gt;&lt;span style=&quot;color: rgba(0, 0, 0, 0); font-family: monospace; font-size: 0px; text-align: start; background-color: rgb(251, 251, 251);&quot;&gt;%3CmxGraphModel%3E%3Croot%3E%3CmxCell%20id%3D%220%22%2F%3E%3CmxCell%20id%3D%221%22%20parent%3D%220%22%2F%3E%3CmxCell%20id%3D%222%22%20value%3D%22%22%20style%3D%22endArrow%3Dnone%3Bhtml%3D1%3Brounded%3D0%3BstrokeWidth%3D6%3BfillColor%3D%23bac8d3%3BstrokeColor%3D%23BAC8D3%3BlabelBorderColor%3Ddefault%3BfontColor%3D%23FF99FF%3BtargetPerimeterSpacing%3D0%3B%22%20edge%3D%221%22%20parent%3D%221%22%3E%3CmxGeometry%20width%3D%2250%22%20height%3D%2250%22%20relative%3D%221%22%20as%3D%22geometry%22%3E%3CmxPoint%20x%3D%22409.5%22%20y%3D%22840%22%20as%3D%22sourcePoint%22%2F%3E%3CmxPoint%20x%3D%22409.5%22%20y%3D%22220%22%20as%3D%22targetPoint%22%2F%3E%3C%2FmxGeometry%3E%3C%2FmxCell%3E%3C%2Froot%3E%3C%2FmxGraphModel%3E&lt;/span&gt;" style="endArrow=classic;html=1;rounded=0;" parent="1" edge="1">
          <mxGeometry x="0.023" y="-10" width="50" height="50" relative="1" as="geometry">
            <mxPoint x="780" y="900" as="sourcePoint" />
            <mxPoint x="780" y="920" as="targetPoint" />
            <Array as="points">
              <mxPoint x="815" y="900" />
              <mxPoint x="815" y="920" />
            </Array>
            <mxPoint as="offset" />
          </mxGeometry>
        </mxCell>
        <mxCell id="kskQlB_dkP9eEl7HwI4r-107" value="&lt;span style=&quot;color: rgb(0, 0, 0); font-size: 12px;&quot;&gt;1.4.4.1.3: process ResultSet&amp;nbsp;&lt;/span&gt;&lt;div&gt;&lt;span style=&quot;color: rgb(0, 0, 0); font-size: 12px;&quot;&gt;and create User&lt;/span&gt;&lt;/div&gt;" style="text;html=1;align=center;verticalAlign=middle;whiteSpace=wrap;rounded=0;fontFamily=Helvetica;fontSize=11;fontColor=#FF99FF;labelBorderColor=none;labelBackgroundColor=default;" parent="1" vertex="1">
          <mxGeometry x="760" y="900" width="277.33" height="30" as="geometry" />
        </mxCell>
        <mxCell id="kskQlB_dkP9eEl7HwI4r-108" value="" style="group" parent="1" vertex="1" connectable="0">
          <mxGeometry x="1070" y="960" width="140" height="60" as="geometry" />
        </mxCell>
        <mxCell id="kskQlB_dkP9eEl7HwI4r-32" value="" style="rounded=0;whiteSpace=wrap;html=1;fillColor=#bac8d3;strokeColor=#23445d;" parent="kskQlB_dkP9eEl7HwI4r-108" vertex="1">
          <mxGeometry width="140" height="60" as="geometry" />
        </mxCell>
        <mxCell id="kskQlB_dkP9eEl7HwI4r-33" value="User" style="text;html=1;align=center;verticalAlign=middle;whiteSpace=wrap;rounded=0;fillColor=none;fontStyle=1;fontColor=#FFFFFF;fontSize=11;" parent="kskQlB_dkP9eEl7HwI4r-108" vertex="1">
          <mxGeometry x="31.888888888888886" y="15" width="76.22222222222221" height="30" as="geometry" />
        </mxCell>
        <mxCell id="kskQlB_dkP9eEl7HwI4r-109" value="&lt;span style=&quot;color: rgb(0, 0, 0); font-size: 12px;&quot;&gt;1.4.4.1.4: new User(ResultSet data)&lt;/span&gt;" style="text;html=1;align=center;verticalAlign=middle;whiteSpace=wrap;rounded=0;fontFamily=Helvetica;fontSize=11;fontColor=#FF99FF;labelBorderColor=none;labelBackgroundColor=default;" parent="1" vertex="1">
          <mxGeometry x="740" y="960" width="277.33" height="30" as="geometry" />
        </mxCell>
        <mxCell id="kskQlB_dkP9eEl7HwI4r-110" value="&lt;span style=&quot;color: rgba(0, 0, 0, 0); font-family: monospace; font-size: 0px; text-align: start; background-color: rgb(251, 251, 251);&quot;&gt;%3CmxGraphModel%3E%3Croot%3E%3CmxCell%20id%3D%220%22%2F%3E%3CmxCell%20id%3D%221%22%20parent%3D%220%22%2F%3E%3CmxCell%20id%3D%222%22%20value%3D%22%22%20style%3D%22endArrow%3Dnone%3Bhtml%3D1%3Brounded%3D0%3BstrokeWidth%3D6%3BfillColor%3D%23bac8d3%3BstrokeColor%3D%23BAC8D3%3BlabelBorderColor%3Ddefault%3BfontColor%3D%23FF99FF%3BtargetPerimeterSpacing%3D0%3B%22%20edge%3D%221%22%20parent%3D%221%22%3E%3CmxGeometry%20width%3D%2250%22%20height%3D%2250%22%20relative%3D%221%22%20as%3D%22geometry%22%3E%3CmxPoint%20x%3D%22409.5%22%20y%3D%22840%22%20as%3D%22sourcePoint%22%2F%3E%3CmxPoint%20x%3D%22409.5%22%20y%3D%22220%22%20as%3D%22targetPoint%22%2F%3E%3C%2FmxGeometry%3E%3C%2FmxCell%3E%3C%2Froot%3E%3C%2FmxGraphModel%3E&lt;/span&gt;&lt;span style=&quot;color: rgba(0, 0, 0, 0); font-family: monospace; font-size: 0px; text-align: start; background-color: rgb(251, 251, 251);&quot;&gt;%3CmxGraphModel%3E%3Croot%3E%3CmxCell%20id%3D%220%22%2F%3E%3CmxCell%20id%3D%221%22%20parent%3D%220%22%2F%3E%3CmxCell%20id%3D%222%22%20value%3D%22%22%20style%3D%22endArrow%3Dnone%3Bhtml%3D1%3Brounded%3D0%3BstrokeWidth%3D6%3BfillColor%3D%23bac8d3%3BstrokeColor%3D%23BAC8D3%3BlabelBorderColor%3Ddefault%3BfontColor%3D%23FF99FF%3BtargetPerimeterSpacing%3D0%3B%22%20edge%3D%221%22%20parent%3D%221%22%3E%3CmxGeometry%20width%3D%2250%22%20height%3D%2250%22%20relative%3D%221%22%20as%3D%22geometry%22%3E%3CmxPoint%20x%3D%22409.5%22%20y%3D%22840%22%20as%3D%22sourcePoint%22%2F%3E%3CmxPoint%20x%3D%22409.5%22%20y%3D%22220%22%20as%3D%22targetPoint%22%2F%3E%3C%2FmxGeometry%3E%3C%2FmxCell%3E%3C%2Froot%3E%3C%2FmxGraphModel%3E&lt;/span&gt;" style="endArrow=classic;html=1;rounded=0;dashed=1;dashPattern=8 8;" parent="1" edge="1">
          <mxGeometry width="50" height="50" relative="1" as="geometry">
            <mxPoint x="779.9999999999999" y="990" as="sourcePoint" />
            <mxPoint x="1070" y="990" as="targetPoint" />
          </mxGeometry>
        </mxCell>
        <mxCell id="kskQlB_dkP9eEl7HwI4r-111" value="&lt;span style=&quot;color: rgb(0, 0, 0); font-size: 12px;&quot;&gt;1.4.4.1.5: return&lt;/span&gt;" style="text;html=1;align=center;verticalAlign=middle;whiteSpace=wrap;rounded=0;fontFamily=Helvetica;fontSize=11;fontColor=#FF99FF;labelBorderColor=none;labelBackgroundColor=default;" parent="1" vertex="1">
          <mxGeometry x="740" y="1010" width="277.33" height="30" as="geometry" />
        </mxCell>
        <mxCell id="kskQlB_dkP9eEl7HwI4r-112" value="&lt;span style=&quot;color: rgba(0, 0, 0, 0); font-family: monospace; font-size: 0px; text-align: start; background-color: rgb(251, 251, 251);&quot;&gt;%3CmxGraphModel%3E%3Croot%3E%3CmxCell%20id%3D%220%22%2F%3E%3CmxCell%20id%3D%221%22%20parent%3D%220%22%2F%3E%3CmxCell%20id%3D%222%22%20value%3D%22%22%20style%3D%22endArrow%3Dnone%3Bhtml%3D1%3Brounded%3D0%3BstrokeWidth%3D6%3BfillColor%3D%23bac8d3%3BstrokeColor%3D%23BAC8D3%3BlabelBorderColor%3Ddefault%3BfontColor%3D%23FF99FF%3BtargetPerimeterSpacing%3D0%3B%22%20edge%3D%221%22%20parent%3D%221%22%3E%3CmxGeometry%20width%3D%2250%22%20height%3D%2250%22%20relative%3D%221%22%20as%3D%22geometry%22%3E%3CmxPoint%20x%3D%22409.5%22%20y%3D%22840%22%20as%3D%22sourcePoint%22%2F%3E%3CmxPoint%20x%3D%22409.5%22%20y%3D%22220%22%20as%3D%22targetPoint%22%2F%3E%3C%2FmxGeometry%3E%3C%2FmxCell%3E%3C%2Froot%3E%3C%2FmxGraphModel%3E&lt;/span&gt;&lt;span style=&quot;color: rgba(0, 0, 0, 0); font-family: monospace; font-size: 0px; text-align: start; background-color: rgb(251, 251, 251);&quot;&gt;%3CmxGraphModel%3E%3Croot%3E%3CmxCell%20id%3D%220%22%2F%3E%3CmxCell%20id%3D%221%22%20parent%3D%220%22%2F%3E%3CmxCell%20id%3D%222%22%20value%3D%22%22%20style%3D%22endArrow%3Dnone%3Bhtml%3D1%3Brounded%3D0%3BstrokeWidth%3D6%3BfillColor%3D%23bac8d3%3BstrokeColor%3D%23BAC8D3%3BlabelBorderColor%3Ddefault%3BfontColor%3D%23FF99FF%3BtargetPerimeterSpacing%3D0%3B%22%20edge%3D%221%22%20parent%3D%221%22%3E%3CmxGeometry%20width%3D%2250%22%20height%3D%2250%22%20relative%3D%221%22%20as%3D%22geometry%22%3E%3CmxPoint%20x%3D%22409.5%22%20y%3D%22840%22%20as%3D%22sourcePoint%22%2F%3E%3CmxPoint%20x%3D%22409.5%22%20y%3D%22220%22%20as%3D%22targetPoint%22%2F%3E%3C%2FmxGeometry%3E%3C%2FmxCell%3E%3C%2Froot%3E%3C%2FmxGraphModel%3E&lt;/span&gt;" style="endArrow=classic;html=1;rounded=0;dashed=1;dashPattern=8 8;entryX=0.855;entryY=1.033;entryDx=0;entryDy=0;entryPerimeter=0;" parent="1" target="kskQlB_dkP9eEl7HwI4r-111" edge="1">
          <mxGeometry width="50" height="50" relative="1" as="geometry">
            <mxPoint x="780" y="1041" as="sourcePoint" />
            <mxPoint x="970" y="1080" as="targetPoint" />
          </mxGeometry>
        </mxCell>
        <mxCell id="kskQlB_dkP9eEl7HwI4r-113" value="&lt;span style=&quot;color: rgba(0, 0, 0, 0); font-family: monospace; font-size: 0px; text-align: start; background-color: rgb(251, 251, 251);&quot;&gt;%3CmxGraphModel%3E%3Croot%3E%3CmxCell%20id%3D%220%22%2F%3E%3CmxCell%20id%3D%221%22%20parent%3D%220%22%2F%3E%3CmxCell%20id%3D%222%22%20value%3D%22%22%20style%3D%22endArrow%3Dnone%3Bhtml%3D1%3Brounded%3D0%3BstrokeWidth%3D6%3BfillColor%3D%23bac8d3%3BstrokeColor%3D%23BAC8D3%3BlabelBorderColor%3Ddefault%3BfontColor%3D%23FF99FF%3BtargetPerimeterSpacing%3D0%3B%22%20edge%3D%221%22%20parent%3D%221%22%3E%3CmxGeometry%20width%3D%2250%22%20height%3D%2250%22%20relative%3D%221%22%20as%3D%22geometry%22%3E%3CmxPoint%20x%3D%22409.5%22%20y%3D%22840%22%20as%3D%22sourcePoint%22%2F%3E%3CmxPoint%20x%3D%22409.5%22%20y%3D%22220%22%20as%3D%22targetPoint%22%2F%3E%3C%2FmxGeometry%3E%3C%2FmxCell%3E%3C%2Froot%3E%3C%2FmxGraphModel%3E&lt;/span&gt;&lt;span style=&quot;color: rgba(0, 0, 0, 0); font-family: monospace; font-size: 0px; text-align: start; background-color: rgb(251, 251, 251);&quot;&gt;%3CmxGraphModel%3E%3Croot%3E%3CmxCell%20id%3D%220%22%2F%3E%3CmxCell%20id%3D%221%22%20parent%3D%220%22%2F%3E%3CmxCell%20id%3D%222%22%20value%3D%22%22%20style%3D%22endArrow%3Dnone%3Bhtml%3D1%3Brounded%3D0%3BstrokeWidth%3D6%3BfillColor%3D%23bac8d3%3BstrokeColor%3D%23BAC8D3%3BlabelBorderColor%3Ddefault%3BfontColor%3D%23FF99FF%3BtargetPerimeterSpacing%3D0%3B%22%20edge%3D%221%22%20parent%3D%221%22%3E%3CmxGeometry%20width%3D%2250%22%20height%3D%2250%22%20relative%3D%221%22%20as%3D%22geometry%22%3E%3CmxPoint%20x%3D%22409.5%22%20y%3D%22840%22%20as%3D%22sourcePoint%22%2F%3E%3CmxPoint%20x%3D%22409.5%22%20y%3D%22220%22%20as%3D%22targetPoint%22%2F%3E%3C%2FmxGeometry%3E%3C%2FmxCell%3E%3C%2Froot%3E%3C%2FmxGraphModel%3E&lt;/span&gt;" style="endArrow=classic;html=1;rounded=0;dashed=1;dashPattern=8 8;" parent="1" edge="1">
          <mxGeometry width="50" height="50" relative="1" as="geometry">
            <mxPoint x="983.67" y="1110" as="sourcePoint" />
            <mxPoint x="413.67" y="1110" as="targetPoint" />
          </mxGeometry>
        </mxCell>
        <mxCell id="kskQlB_dkP9eEl7HwI4r-114" value="&lt;span style=&quot;color: rgb(0, 0, 0); font-size: 12px;&quot;&gt;1.4.5: return&lt;/span&gt;" style="text;html=1;align=center;verticalAlign=middle;whiteSpace=wrap;rounded=0;fontFamily=Helvetica;fontSize=11;fontColor=#FF99FF;labelBorderColor=none;labelBackgroundColor=default;" parent="1" vertex="1">
          <mxGeometry x="550" y="1080" width="277.33" height="30" as="geometry" />
        </mxCell>
        <mxCell id="kskQlB_dkP9eEl7HwI4r-115" value="&lt;span style=&quot;color: rgba(0, 0, 0, 0); font-family: monospace; font-size: 0px; text-align: start; background-color: rgb(251, 251, 251);&quot;&gt;%3CmxGraphModel%3E%3Croot%3E%3CmxCell%20id%3D%220%22%2F%3E%3CmxCell%20id%3D%221%22%20parent%3D%220%22%2F%3E%3CmxCell%20id%3D%222%22%20value%3D%22%22%20style%3D%22endArrow%3Dnone%3Bhtml%3D1%3Brounded%3D0%3BstrokeWidth%3D6%3BfillColor%3D%23bac8d3%3BstrokeColor%3D%23BAC8D3%3BlabelBorderColor%3Ddefault%3BfontColor%3D%23FF99FF%3BtargetPerimeterSpacing%3D0%3B%22%20edge%3D%221%22%20parent%3D%221%22%3E%3CmxGeometry%20width%3D%2250%22%20height%3D%2250%22%20relative%3D%221%22%20as%3D%22geometry%22%3E%3CmxPoint%20x%3D%22409.5%22%20y%3D%22840%22%20as%3D%22sourcePoint%22%2F%3E%3CmxPoint%20x%3D%22409.5%22%20y%3D%22220%22%20as%3D%22targetPoint%22%2F%3E%3C%2FmxGeometry%3E%3C%2FmxCell%3E%3C%2Froot%3E%3C%2FmxGraphModel%3E&lt;/span&gt;&lt;span style=&quot;color: rgba(0, 0, 0, 0); font-family: monospace; font-size: 0px; text-align: start; background-color: rgb(251, 251, 251);&quot;&gt;%3CmxGraphModel%3E%3Croot%3E%3CmxCell%20id%3D%220%22%2F%3E%3CmxCell%20id%3D%221%22%20parent%3D%220%22%2F%3E%3CmxCell%20id%3D%222%22%20value%3D%22%22%20style%3D%22endArrow%3Dnone%3Bhtml%3D1%3Brounded%3D0%3BstrokeWidth%3D6%3BfillColor%3D%23bac8d3%3BstrokeColor%3D%23BAC8D3%3BlabelBorderColor%3Ddefault%3BfontColor%3D%23FF99FF%3BtargetPerimeterSpacing%3D0%3B%22%20edge%3D%221%22%20parent%3D%221%22%3E%3CmxGeometry%20width%3D%2250%22%20height%3D%2250%22%20relative%3D%221%22%20as%3D%22geometry%22%3E%3CmxPoint%20x%3D%22409.5%22%20y%3D%22840%22%20as%3D%22sourcePoint%22%2F%3E%3CmxPoint%20x%3D%22409.5%22%20y%3D%22220%22%20as%3D%22targetPoint%22%2F%3E%3C%2FmxGeometry%3E%3C%2FmxCell%3E%3C%2Froot%3E%3C%2FmxGraphModel%3E&lt;/span&gt;" style="endArrow=classic;html=1;rounded=0;dashed=1;dashPattern=8 8;" parent="1" edge="1">
          <mxGeometry width="50" height="50" relative="1" as="geometry">
            <mxPoint x="983.67" y="1200" as="sourcePoint" />
            <mxPoint x="413.67" y="1200" as="targetPoint" />
          </mxGeometry>
        </mxCell>
        <mxCell id="kskQlB_dkP9eEl7HwI4r-116" value="&lt;span style=&quot;color: rgb(0, 0, 0); font-size: 12px;&quot;&gt;1.4.7: return&lt;/span&gt;" style="text;html=1;align=center;verticalAlign=middle;whiteSpace=wrap;rounded=0;fontFamily=Helvetica;fontSize=11;fontColor=#FF99FF;labelBorderColor=none;labelBackgroundColor=default;" parent="1" vertex="1">
          <mxGeometry x="550" y="1170" width="277.33" height="30" as="geometry" />
        </mxCell>
        <mxCell id="kskQlB_dkP9eEl7HwI4r-117" value="&lt;span style=&quot;color: rgb(0, 0, 0); font-size: 12px;&quot;&gt;1.4.6: getOutputParam()&lt;/span&gt;" style="text;html=1;align=center;verticalAlign=middle;whiteSpace=wrap;rounded=0;fontFamily=Helvetica;fontSize=11;fontColor=#FF99FF;labelBorderColor=none;labelBackgroundColor=default;" parent="1" vertex="1">
          <mxGeometry x="560" y="1130" width="277.33" height="30" as="geometry" />
        </mxCell>
        <mxCell id="kskQlB_dkP9eEl7HwI4r-118" value="&lt;span style=&quot;color: rgba(0, 0, 0, 0); font-family: monospace; font-size: 0px; text-align: start; background-color: rgb(251, 251, 251);&quot;&gt;%3CmxGraphModel%3E%3Croot%3E%3CmxCell%20id%3D%220%22%2F%3E%3CmxCell%20id%3D%221%22%20parent%3D%220%22%2F%3E%3CmxCell%20id%3D%222%22%20value%3D%22%22%20style%3D%22endArrow%3Dnone%3Bhtml%3D1%3Brounded%3D0%3BstrokeWidth%3D6%3BfillColor%3D%23bac8d3%3BstrokeColor%3D%23BAC8D3%3BlabelBorderColor%3Ddefault%3BfontColor%3D%23FF99FF%3BtargetPerimeterSpacing%3D0%3B%22%20edge%3D%221%22%20parent%3D%221%22%3E%3CmxGeometry%20width%3D%2250%22%20height%3D%2250%22%20relative%3D%221%22%20as%3D%22geometry%22%3E%3CmxPoint%20x%3D%22409.5%22%20y%3D%22840%22%20as%3D%22sourcePoint%22%2F%3E%3CmxPoint%20x%3D%22409.5%22%20y%3D%22220%22%20as%3D%22targetPoint%22%2F%3E%3C%2FmxGeometry%3E%3C%2FmxCell%3E%3C%2Froot%3E%3C%2FmxGraphModel%3E&lt;/span&gt;&lt;span style=&quot;color: rgba(0, 0, 0, 0); font-family: monospace; font-size: 0px; text-align: start; background-color: rgb(251, 251, 251);&quot;&gt;%3CmxGraphModel%3E%3Croot%3E%3CmxCell%20id%3D%220%22%2F%3E%3CmxCell%20id%3D%221%22%20parent%3D%220%22%2F%3E%3CmxCell%20id%3D%222%22%20value%3D%22%22%20style%3D%22endArrow%3Dnone%3Bhtml%3D1%3Brounded%3D0%3BstrokeWidth%3D6%3BfillColor%3D%23bac8d3%3BstrokeColor%3D%23BAC8D3%3BlabelBorderColor%3Ddefault%3BfontColor%3D%23FF99FF%3BtargetPerimeterSpacing%3D0%3B%22%20edge%3D%221%22%20parent%3D%221%22%3E%3CmxGeometry%20width%3D%2250%22%20height%3D%2250%22%20relative%3D%221%22%20as%3D%22geometry%22%3E%3CmxPoint%20x%3D%22409.5%22%20y%3D%22840%22%20as%3D%22sourcePoint%22%2F%3E%3CmxPoint%20x%3D%22409.5%22%20y%3D%22220%22%20as%3D%22targetPoint%22%2F%3E%3C%2FmxGeometry%3E%3C%2FmxCell%3E%3C%2Froot%3E%3C%2FmxGraphModel%3E&lt;/span&gt;" style="endArrow=classic;html=1;rounded=0;" parent="1" edge="1">
          <mxGeometry width="50" height="50" relative="1" as="geometry">
            <mxPoint x="413.66" y="1160" as="sourcePoint" />
            <mxPoint x="983.66" y="1160" as="targetPoint" />
          </mxGeometry>
        </mxCell>
        <mxCell id="kskQlB_dkP9eEl7HwI4r-119" value="&lt;span style=&quot;color: rgba(0, 0, 0, 0); font-family: monospace; font-size: 0px; text-align: start; background-color: rgb(251, 251, 251);&quot;&gt;%3CmxGraphModel%3E%3Croot%3E%3CmxCell%20id%3D%220%22%2F%3E%3CmxCell%20id%3D%221%22%20parent%3D%220%22%2F%3E%3CmxCell%20id%3D%222%22%20value%3D%22%22%20style%3D%22endArrow%3Dnone%3Bhtml%3D1%3Brounded%3D0%3BstrokeWidth%3D6%3BfillColor%3D%23bac8d3%3BstrokeColor%3D%23BAC8D3%3BlabelBorderColor%3Ddefault%3BfontColor%3D%23FF99FF%3BtargetPerimeterSpacing%3D0%3B%22%20edge%3D%221%22%20parent%3D%221%22%3E%3CmxGeometry%20width%3D%2250%22%20height%3D%2250%22%20relative%3D%221%22%20as%3D%22geometry%22%3E%3CmxPoint%20x%3D%22409.5%22%20y%3D%22840%22%20as%3D%22sourcePoint%22%2F%3E%3CmxPoint%20x%3D%22409.5%22%20y%3D%22220%22%20as%3D%22targetPoint%22%2F%3E%3C%2FmxGeometry%3E%3C%2FmxCell%3E%3C%2Froot%3E%3C%2FmxGraphModel%3E&lt;/span&gt;&lt;span style=&quot;color: rgba(0, 0, 0, 0); font-family: monospace; font-size: 0px; text-align: start; background-color: rgb(251, 251, 251);&quot;&gt;%3CmxGraphModel%3E%3Croot%3E%3CmxCell%20id%3D%220%22%2F%3E%3CmxCell%20id%3D%221%22%20parent%3D%220%22%2F%3E%3CmxCell%20id%3D%222%22%20value%3D%22%22%20style%3D%22endArrow%3Dnone%3Bhtml%3D1%3Brounded%3D0%3BstrokeWidth%3D6%3BfillColor%3D%23bac8d3%3BstrokeColor%3D%23BAC8D3%3BlabelBorderColor%3Ddefault%3BfontColor%3D%23FF99FF%3BtargetPerimeterSpacing%3D0%3B%22%20edge%3D%221%22%20parent%3D%221%22%3E%3CmxGeometry%20width%3D%2250%22%20height%3D%2250%22%20relative%3D%221%22%20as%3D%22geometry%22%3E%3CmxPoint%20x%3D%22409.5%22%20y%3D%22840%22%20as%3D%22sourcePoint%22%2F%3E%3CmxPoint%20x%3D%22409.5%22%20y%3D%22220%22%20as%3D%22targetPoint%22%2F%3E%3C%2FmxGeometry%3E%3C%2FmxCell%3E%3C%2Froot%3E%3C%2FmxGraphModel%3E&lt;/span&gt;" style="endArrow=classic;html=1;rounded=0;dashed=1;dashPattern=8 8;" parent="1" edge="1">
          <mxGeometry width="50" height="50" relative="1" as="geometry">
            <mxPoint x="410" y="1261" as="sourcePoint" />
            <mxPoint x="610" y="1260" as="targetPoint" />
          </mxGeometry>
        </mxCell>
        <mxCell id="kskQlB_dkP9eEl7HwI4r-122" value="&lt;span style=&quot;color: rgb(0, 0, 0); font-size: 12px;&quot;&gt;1.4.10: return&lt;/span&gt;" style="text;html=1;align=center;verticalAlign=middle;whiteSpace=wrap;rounded=0;fontFamily=Helvetica;fontSize=11;fontColor=#FF99FF;labelBorderColor=none;labelBackgroundColor=default;" parent="1" vertex="1">
          <mxGeometry x="190.01" y="1350" width="277.33" height="30" as="geometry" />
        </mxCell>
        <mxCell id="kskQlB_dkP9eEl7HwI4r-123" value="&lt;span style=&quot;color: rgb(0, 0, 0); font-size: 12px;&quot;&gt;1.4.11: HTML page&lt;/span&gt;" style="text;html=1;align=center;verticalAlign=middle;whiteSpace=wrap;rounded=0;fontFamily=Helvetica;fontSize=11;fontColor=#FF99FF;labelBorderColor=none;labelBackgroundColor=default;" parent="1" vertex="1">
          <mxGeometry x="26.33" y="1370" width="277.33" height="30" as="geometry" />
        </mxCell>
        <mxCell id="kskQlB_dkP9eEl7HwI4r-125" value="&lt;span style=&quot;color: rgba(0, 0, 0, 0); font-family: monospace; font-size: 0px; text-align: start; background-color: rgb(251, 251, 251);&quot;&gt;%3CmxGraphModel%3E%3Croot%3E%3CmxCell%20id%3D%220%22%2F%3E%3CmxCell%20id%3D%221%22%20parent%3D%220%22%2F%3E%3CmxCell%20id%3D%222%22%20value%3D%22%22%20style%3D%22endArrow%3Dnone%3Bhtml%3D1%3Brounded%3D0%3BstrokeWidth%3D6%3BfillColor%3D%23bac8d3%3BstrokeColor%3D%23BAC8D3%3BlabelBorderColor%3Ddefault%3BfontColor%3D%23FF99FF%3BtargetPerimeterSpacing%3D0%3B%22%20edge%3D%221%22%20parent%3D%221%22%3E%3CmxGeometry%20width%3D%2250%22%20height%3D%2250%22%20relative%3D%221%22%20as%3D%22geometry%22%3E%3CmxPoint%20x%3D%22409.5%22%20y%3D%22840%22%20as%3D%22sourcePoint%22%2F%3E%3CmxPoint%20x%3D%22409.5%22%20y%3D%22220%22%20as%3D%22targetPoint%22%2F%3E%3C%2FmxGeometry%3E%3C%2FmxCell%3E%3C%2Froot%3E%3C%2FmxGraphModel%3E&lt;/span&gt;&lt;span style=&quot;color: rgba(0, 0, 0, 0); font-family: monospace; font-size: 0px; text-align: start; background-color: rgb(251, 251, 251);&quot;&gt;%3CmxGraphModel%3E%3Croot%3E%3CmxCell%20id%3D%220%22%2F%3E%3CmxCell%20id%3D%221%22%20parent%3D%220%22%2F%3E%3CmxCell%20id%3D%222%22%20value%3D%22%22%20style%3D%22endArrow%3Dnone%3Bhtml%3D1%3Brounded%3D0%3BstrokeWidth%3D6%3BfillColor%3D%23bac8d3%3BstrokeColor%3D%23BAC8D3%3BlabelBorderColor%3Ddefault%3BfontColor%3D%23FF99FF%3BtargetPerimeterSpacing%3D0%3B%22%20edge%3D%221%22%20parent%3D%221%22%3E%3CmxGeometry%20width%3D%2250%22%20height%3D%2250%22%20relative%3D%221%22%20as%3D%22geometry%22%3E%3CmxPoint%20x%3D%22409.5%22%20y%3D%22840%22%20as%3D%22sourcePoint%22%2F%3E%3CmxPoint%20x%3D%22409.5%22%20y%3D%22220%22%20as%3D%22targetPoint%22%2F%3E%3C%2FmxGeometry%3E%3C%2FmxCell%3E%3C%2Froot%3E%3C%2FmxGraphModel%3E&lt;/span&gt;" style="endArrow=classic;html=1;rounded=0;dashed=1;dashPattern=8 8;entryX=0.203;entryY=1.007;entryDx=0;entryDy=0;entryPerimeter=0;" parent="1" target="kskQlB_dkP9eEl7HwI4r-122" edge="1">
          <mxGeometry width="50" height="50" relative="1" as="geometry">
            <mxPoint x="409" y="1380" as="sourcePoint" />
            <mxPoint x="260" y="1400.5" as="targetPoint" />
          </mxGeometry>
        </mxCell>
        <mxCell id="kskQlB_dkP9eEl7HwI4r-127" value="&lt;span style=&quot;color: rgba(0, 0, 0, 0); font-family: monospace; font-size: 0px; text-align: start; background-color: rgb(251, 251, 251);&quot;&gt;%3CmxGraphModel%3E%3Croot%3E%3CmxCell%20id%3D%220%22%2F%3E%3CmxCell%20id%3D%221%22%20parent%3D%220%22%2F%3E%3CmxCell%20id%3D%222%22%20value%3D%22%22%20style%3D%22endArrow%3Dnone%3Bhtml%3D1%3Brounded%3D0%3BstrokeWidth%3D6%3BfillColor%3D%23bac8d3%3BstrokeColor%3D%23BAC8D3%3BlabelBorderColor%3Ddefault%3BfontColor%3D%23FF99FF%3BtargetPerimeterSpacing%3D0%3B%22%20edge%3D%221%22%20parent%3D%221%22%3E%3CmxGeometry%20width%3D%2250%22%20height%3D%2250%22%20relative%3D%221%22%20as%3D%22geometry%22%3E%3CmxPoint%20x%3D%22409.5%22%20y%3D%22840%22%20as%3D%22sourcePoint%22%2F%3E%3CmxPoint%20x%3D%22409.5%22%20y%3D%22220%22%20as%3D%22targetPoint%22%2F%3E%3C%2FmxGeometry%3E%3C%2FmxCell%3E%3C%2Froot%3E%3C%2FmxGraphModel%3E&lt;/span&gt;&lt;span style=&quot;color: rgba(0, 0, 0, 0); font-family: monospace; font-size: 0px; text-align: start; background-color: rgb(251, 251, 251);&quot;&gt;%3CmxGraphModel%3E%3Croot%3E%3CmxCell%20id%3D%220%22%2F%3E%3CmxCell%20id%3D%221%22%20parent%3D%220%22%2F%3E%3CmxCell%20id%3D%222%22%20value%3D%22%22%20style%3D%22endArrow%3Dnone%3Bhtml%3D1%3Brounded%3D0%3BstrokeWidth%3D6%3BfillColor%3D%23bac8d3%3BstrokeColor%3D%23BAC8D3%3BlabelBorderColor%3Ddefault%3BfontColor%3D%23FF99FF%3BtargetPerimeterSpacing%3D0%3B%22%20edge%3D%221%22%20parent%3D%221%22%3E%3CmxGeometry%20width%3D%2250%22%20height%3D%2250%22%20relative%3D%221%22%20as%3D%22geometry%22%3E%3CmxPoint%20x%3D%22409.5%22%20y%3D%22840%22%20as%3D%22sourcePoint%22%2F%3E%3CmxPoint%20x%3D%22409.5%22%20y%3D%22220%22%20as%3D%22targetPoint%22%2F%3E%3C%2FmxGeometry%3E%3C%2FmxCell%3E%3C%2Froot%3E%3C%2FmxGraphModel%3E&lt;/span&gt;" style="endArrow=classic;html=1;rounded=0;dashed=1;dashPattern=8 8;entryX=0.203;entryY=1.007;entryDx=0;entryDy=0;entryPerimeter=0;" parent="1" edge="1">
          <mxGeometry width="50" height="50" relative="1" as="geometry">
            <mxPoint x="239.99999999999997" y="1400" as="sourcePoint" />
            <mxPoint x="83.33000000000001" y="1400" as="targetPoint" />
          </mxGeometry>
        </mxCell>
        <mxCell id="kskQlB_dkP9eEl7HwI4r-130" value="&lt;span style=&quot;color: rgba(0, 0, 0, 0); font-family: monospace; font-size: 0px; text-align: start; background-color: rgb(251, 251, 251);&quot;&gt;%3CmxGraphModel%3E%3Croot%3E%3CmxCell%20id%3D%220%22%2F%3E%3CmxCell%20id%3D%221%22%20parent%3D%220%22%2F%3E%3CmxCell%20id%3D%222%22%20value%3D%22%22%20style%3D%22endArrow%3Dnone%3Bhtml%3D1%3Brounded%3D0%3BstrokeWidth%3D6%3BfillColor%3D%23bac8d3%3BstrokeColor%3D%23BAC8D3%3BlabelBorderColor%3Ddefault%3BfontColor%3D%23FF99FF%3BtargetPerimeterSpacing%3D0%3B%22%20edge%3D%221%22%20parent%3D%221%22%3E%3CmxGeometry%20width%3D%2250%22%20height%3D%2250%22%20relative%3D%221%22%20as%3D%22geometry%22%3E%3CmxPoint%20x%3D%22409.5%22%20y%3D%22840%22%20as%3D%22sourcePoint%22%2F%3E%3CmxPoint%20x%3D%22409.5%22%20y%3D%22220%22%20as%3D%22targetPoint%22%2F%3E%3C%2FmxGeometry%3E%3C%2FmxCell%3E%3C%2Froot%3E%3C%2FmxGraphModel%3E&lt;/span&gt;&lt;span style=&quot;color: rgba(0, 0, 0, 0); font-family: monospace; font-size: 0px; text-align: start; background-color: rgb(251, 251, 251);&quot;&gt;%3CmxGraphModel%3E%3Croot%3E%3CmxCell%20id%3D%220%22%2F%3E%3CmxCell%20id%3D%221%22%20parent%3D%220%22%2F%3E%3CmxCell%20id%3D%222%22%20value%3D%22%22%20style%3D%22endArrow%3Dnone%3Bhtml%3D1%3Brounded%3D0%3BstrokeWidth%3D6%3BfillColor%3D%23bac8d3%3BstrokeColor%3D%23BAC8D3%3BlabelBorderColor%3Ddefault%3BfontColor%3D%23FF99FF%3BtargetPerimeterSpacing%3D0%3B%22%20edge%3D%221%22%20parent%3D%221%22%3E%3CmxGeometry%20width%3D%2250%22%20height%3D%2250%22%20relative%3D%221%22%20as%3D%22geometry%22%3E%3CmxPoint%20x%3D%22409.5%22%20y%3D%22840%22%20as%3D%22sourcePoint%22%2F%3E%3CmxPoint%20x%3D%22409.5%22%20y%3D%22220%22%20as%3D%22targetPoint%22%2F%3E%3C%2FmxGeometry%3E%3C%2FmxCell%3E%3C%2Froot%3E%3C%2FmxGraphModel%3E&lt;/span&gt;" style="endArrow=none;html=1;rounded=0;dashed=1;dashPattern=8 8;endFill=0;entryX=0.5;entryY=1;entryDx=0;entryDy=0;" parent="1" target="kskQlB_dkP9eEl7HwI4r-23" edge="1">
          <mxGeometry x="0.4444" y="-6" width="50" height="50" relative="1" as="geometry">
            <mxPoint x="574.29" y="310" as="sourcePoint" />
            <mxPoint x="574.29" y="130" as="targetPoint" />
            <mxPoint as="offset" />
          </mxGeometry>
        </mxCell>
        <mxCell id="kskQlB_dkP9eEl7HwI4r-131" value="&lt;span style=&quot;color: rgba(0, 0, 0, 0); font-family: monospace; font-size: 0px; text-align: start; background-color: rgb(251, 251, 251);&quot;&gt;%3CmxGraphModel%3E%3Croot%3E%3CmxCell%20id%3D%220%22%2F%3E%3CmxCell%20id%3D%221%22%20parent%3D%220%22%2F%3E%3CmxCell%20id%3D%222%22%20value%3D%22%22%20style%3D%22endArrow%3Dnone%3Bhtml%3D1%3Brounded%3D0%3BstrokeWidth%3D6%3BfillColor%3D%23bac8d3%3BstrokeColor%3D%23BAC8D3%3BlabelBorderColor%3Ddefault%3BfontColor%3D%23FF99FF%3BtargetPerimeterSpacing%3D0%3B%22%20edge%3D%221%22%20parent%3D%221%22%3E%3CmxGeometry%20width%3D%2250%22%20height%3D%2250%22%20relative%3D%221%22%20as%3D%22geometry%22%3E%3CmxPoint%20x%3D%22409.5%22%20y%3D%22840%22%20as%3D%22sourcePoint%22%2F%3E%3CmxPoint%20x%3D%22409.5%22%20y%3D%22220%22%20as%3D%22targetPoint%22%2F%3E%3C%2FmxGeometry%3E%3C%2FmxCell%3E%3C%2Froot%3E%3C%2FmxGraphModel%3E&lt;/span&gt;&lt;span style=&quot;color: rgba(0, 0, 0, 0); font-family: monospace; font-size: 0px; text-align: start; background-color: rgb(251, 251, 251);&quot;&gt;%3CmxGraphModel%3E%3Croot%3E%3CmxCell%20id%3D%220%22%2F%3E%3CmxCell%20id%3D%221%22%20parent%3D%220%22%2F%3E%3CmxCell%20id%3D%222%22%20value%3D%22%22%20style%3D%22endArrow%3Dnone%3Bhtml%3D1%3Brounded%3D0%3BstrokeWidth%3D6%3BfillColor%3D%23bac8d3%3BstrokeColor%3D%23BAC8D3%3BlabelBorderColor%3Ddefault%3BfontColor%3D%23FF99FF%3BtargetPerimeterSpacing%3D0%3B%22%20edge%3D%221%22%20parent%3D%221%22%3E%3CmxGeometry%20width%3D%2250%22%20height%3D%2250%22%20relative%3D%221%22%20as%3D%22geometry%22%3E%3CmxPoint%20x%3D%22409.5%22%20y%3D%22840%22%20as%3D%22sourcePoint%22%2F%3E%3CmxPoint%20x%3D%22409.5%22%20y%3D%22220%22%20as%3D%22targetPoint%22%2F%3E%3C%2FmxGeometry%3E%3C%2FmxCell%3E%3C%2Froot%3E%3C%2FmxGraphModel%3E&lt;/span&gt;" style="endArrow=none;html=1;rounded=0;dashed=1;dashPattern=8 8;endFill=0;" parent="1" edge="1">
          <mxGeometry x="0.4444" y="-6" width="50" height="50" relative="1" as="geometry">
            <mxPoint x="570" y="1480" as="sourcePoint" />
            <mxPoint x="575" y="400" as="targetPoint" />
            <mxPoint as="offset" />
          </mxGeometry>
        </mxCell>
        <mxCell id="kskQlB_dkP9eEl7HwI4r-132" value="&lt;span style=&quot;color: rgba(0, 0, 0, 0); font-family: monospace; font-size: 0px; text-align: start; background-color: rgb(251, 251, 251);&quot;&gt;%3CmxGraphModel%3E%3Croot%3E%3CmxCell%20id%3D%220%22%2F%3E%3CmxCell%20id%3D%221%22%20parent%3D%220%22%2F%3E%3CmxCell%20id%3D%222%22%20value%3D%22%22%20style%3D%22endArrow%3Dnone%3Bhtml%3D1%3Brounded%3D0%3BstrokeWidth%3D6%3BfillColor%3D%23bac8d3%3BstrokeColor%3D%23BAC8D3%3BlabelBorderColor%3Ddefault%3BfontColor%3D%23FF99FF%3BtargetPerimeterSpacing%3D0%3B%22%20edge%3D%221%22%20parent%3D%221%22%3E%3CmxGeometry%20width%3D%2250%22%20height%3D%2250%22%20relative%3D%221%22%20as%3D%22geometry%22%3E%3CmxPoint%20x%3D%22409.5%22%20y%3D%22840%22%20as%3D%22sourcePoint%22%2F%3E%3CmxPoint%20x%3D%22409.5%22%20y%3D%22220%22%20as%3D%22targetPoint%22%2F%3E%3C%2FmxGeometry%3E%3C%2FmxCell%3E%3C%2Froot%3E%3C%2FmxGraphModel%3E&lt;/span&gt;&lt;span style=&quot;color: rgba(0, 0, 0, 0); font-family: monospace; font-size: 0px; text-align: start; background-color: rgb(251, 251, 251);&quot;&gt;%3CmxGraphModel%3E%3Croot%3E%3CmxCell%20id%3D%220%22%2F%3E%3CmxCell%20id%3D%221%22%20parent%3D%220%22%2F%3E%3CmxCell%20id%3D%222%22%20value%3D%22%22%20style%3D%22endArrow%3Dnone%3Bhtml%3D1%3Brounded%3D0%3BstrokeWidth%3D6%3BfillColor%3D%23bac8d3%3BstrokeColor%3D%23BAC8D3%3BlabelBorderColor%3Ddefault%3BfontColor%3D%23FF99FF%3BtargetPerimeterSpacing%3D0%3B%22%20edge%3D%221%22%20parent%3D%221%22%3E%3CmxGeometry%20width%3D%2250%22%20height%3D%2250%22%20relative%3D%221%22%20as%3D%22geometry%22%3E%3CmxPoint%20x%3D%22409.5%22%20y%3D%22840%22%20as%3D%22sourcePoint%22%2F%3E%3CmxPoint%20x%3D%22409.5%22%20y%3D%22220%22%20as%3D%22targetPoint%22%2F%3E%3C%2FmxGeometry%3E%3C%2FmxCell%3E%3C%2Froot%3E%3C%2FmxGraphModel%3E&lt;/span&gt;" style="endArrow=none;html=1;rounded=0;dashed=1;dashPattern=8 8;endFill=0;" parent="1" edge="1">
          <mxGeometry x="0.7132" y="9" width="50" height="50" relative="1" as="geometry">
            <mxPoint x="244" y="190" as="sourcePoint" />
            <mxPoint x="244" y="120" as="targetPoint" />
            <mxPoint as="offset" />
          </mxGeometry>
        </mxCell>
        <mxCell id="kskQlB_dkP9eEl7HwI4r-133" value="&lt;span style=&quot;color: rgba(0, 0, 0, 0); font-family: monospace; font-size: 0px; text-align: start; background-color: rgb(251, 251, 251);&quot;&gt;%3CmxGraphModel%3E%3Croot%3E%3CmxCell%20id%3D%220%22%2F%3E%3CmxCell%20id%3D%221%22%20parent%3D%220%22%2F%3E%3CmxCell%20id%3D%222%22%20value%3D%22%22%20style%3D%22endArrow%3Dnone%3Bhtml%3D1%3Brounded%3D0%3BstrokeWidth%3D6%3BfillColor%3D%23bac8d3%3BstrokeColor%3D%23BAC8D3%3BlabelBorderColor%3Ddefault%3BfontColor%3D%23FF99FF%3BtargetPerimeterSpacing%3D0%3B%22%20edge%3D%221%22%20parent%3D%221%22%3E%3CmxGeometry%20width%3D%2250%22%20height%3D%2250%22%20relative%3D%221%22%20as%3D%22geometry%22%3E%3CmxPoint%20x%3D%22409.5%22%20y%3D%22840%22%20as%3D%22sourcePoint%22%2F%3E%3CmxPoint%20x%3D%22409.5%22%20y%3D%22220%22%20as%3D%22targetPoint%22%2F%3E%3C%2FmxGeometry%3E%3C%2FmxCell%3E%3C%2Froot%3E%3C%2FmxGraphModel%3E&lt;/span&gt;&lt;span style=&quot;color: rgba(0, 0, 0, 0); font-family: monospace; font-size: 0px; text-align: start; background-color: rgb(251, 251, 251);&quot;&gt;%3CmxGraphModel%3E%3Croot%3E%3CmxCell%20id%3D%220%22%2F%3E%3CmxCell%20id%3D%221%22%20parent%3D%220%22%2F%3E%3CmxCell%20id%3D%222%22%20value%3D%22%22%20style%3D%22endArrow%3Dnone%3Bhtml%3D1%3Brounded%3D0%3BstrokeWidth%3D6%3BfillColor%3D%23bac8d3%3BstrokeColor%3D%23BAC8D3%3BlabelBorderColor%3Ddefault%3BfontColor%3D%23FF99FF%3BtargetPerimeterSpacing%3D0%3B%22%20edge%3D%221%22%20parent%3D%221%22%3E%3CmxGeometry%20width%3D%2250%22%20height%3D%2250%22%20relative%3D%221%22%20as%3D%22geometry%22%3E%3CmxPoint%20x%3D%22409.5%22%20y%3D%22840%22%20as%3D%22sourcePoint%22%2F%3E%3CmxPoint%20x%3D%22409.5%22%20y%3D%22220%22%20as%3D%22targetPoint%22%2F%3E%3C%2FmxGeometry%3E%3C%2FmxCell%3E%3C%2Froot%3E%3C%2FmxGraphModel%3E&lt;/span&gt;" style="endArrow=none;html=1;rounded=0;dashed=1;dashPattern=8 8;endFill=0;" parent="1" edge="1">
          <mxGeometry x="0.7132" y="9" width="50" height="50" relative="1" as="geometry">
            <mxPoint x="410" y="292" as="sourcePoint" />
            <mxPoint x="410" y="268" as="targetPoint" />
            <mxPoint as="offset" />
          </mxGeometry>
        </mxCell>
        <mxCell id="kskQlB_dkP9eEl7HwI4r-134" value="&lt;span style=&quot;color: rgba(0, 0, 0, 0); font-family: monospace; font-size: 0px; text-align: start; background-color: rgb(251, 251, 251);&quot;&gt;%3CmxGraphModel%3E%3Croot%3E%3CmxCell%20id%3D%220%22%2F%3E%3CmxCell%20id%3D%221%22%20parent%3D%220%22%2F%3E%3CmxCell%20id%3D%222%22%20value%3D%22%22%20style%3D%22endArrow%3Dnone%3Bhtml%3D1%3Brounded%3D0%3BstrokeWidth%3D6%3BfillColor%3D%23bac8d3%3BstrokeColor%3D%23BAC8D3%3BlabelBorderColor%3Ddefault%3BfontColor%3D%23FF99FF%3BtargetPerimeterSpacing%3D0%3B%22%20edge%3D%221%22%20parent%3D%221%22%3E%3CmxGeometry%20width%3D%2250%22%20height%3D%2250%22%20relative%3D%221%22%20as%3D%22geometry%22%3E%3CmxPoint%20x%3D%22409.5%22%20y%3D%22840%22%20as%3D%22sourcePoint%22%2F%3E%3CmxPoint%20x%3D%22409.5%22%20y%3D%22220%22%20as%3D%22targetPoint%22%2F%3E%3C%2FmxGeometry%3E%3C%2FmxCell%3E%3C%2Froot%3E%3C%2FmxGraphModel%3E&lt;/span&gt;&lt;span style=&quot;color: rgba(0, 0, 0, 0); font-family: monospace; font-size: 0px; text-align: start; background-color: rgb(251, 251, 251);&quot;&gt;%3CmxGraphModel%3E%3Croot%3E%3CmxCell%20id%3D%220%22%2F%3E%3CmxCell%20id%3D%221%22%20parent%3D%220%22%2F%3E%3CmxCell%20id%3D%222%22%20value%3D%22%22%20style%3D%22endArrow%3Dnone%3Bhtml%3D1%3Brounded%3D0%3BstrokeWidth%3D6%3BfillColor%3D%23bac8d3%3BstrokeColor%3D%23BAC8D3%3BlabelBorderColor%3Ddefault%3BfontColor%3D%23FF99FF%3BtargetPerimeterSpacing%3D0%3B%22%20edge%3D%221%22%20parent%3D%221%22%3E%3CmxGeometry%20width%3D%2250%22%20height%3D%2250%22%20relative%3D%221%22%20as%3D%22geometry%22%3E%3CmxPoint%20x%3D%22409.5%22%20y%3D%22840%22%20as%3D%22sourcePoint%22%2F%3E%3CmxPoint%20x%3D%22409.5%22%20y%3D%22220%22%20as%3D%22targetPoint%22%2F%3E%3C%2FmxGeometry%3E%3C%2FmxCell%3E%3C%2Froot%3E%3C%2FmxGraphModel%3E&lt;/span&gt;" style="endArrow=none;html=1;rounded=0;dashed=1;dashPattern=8 8;endFill=0;" parent="1" edge="1">
          <mxGeometry x="0.7132" y="9" width="50" height="50" relative="1" as="geometry">
            <mxPoint x="244" y="1480" as="sourcePoint" />
            <mxPoint x="244" y="1420" as="targetPoint" />
            <mxPoint as="offset" />
          </mxGeometry>
        </mxCell>
        <mxCell id="kskQlB_dkP9eEl7HwI4r-135" value="&lt;span style=&quot;color: rgba(0, 0, 0, 0); font-family: monospace; font-size: 0px; text-align: start; background-color: rgb(251, 251, 251);&quot;&gt;%3CmxGraphModel%3E%3Croot%3E%3CmxCell%20id%3D%220%22%2F%3E%3CmxCell%20id%3D%221%22%20parent%3D%220%22%2F%3E%3CmxCell%20id%3D%222%22%20value%3D%22%22%20style%3D%22endArrow%3Dnone%3Bhtml%3D1%3Brounded%3D0%3BstrokeWidth%3D6%3BfillColor%3D%23bac8d3%3BstrokeColor%3D%23BAC8D3%3BlabelBorderColor%3Ddefault%3BfontColor%3D%23FF99FF%3BtargetPerimeterSpacing%3D0%3B%22%20edge%3D%221%22%20parent%3D%221%22%3E%3CmxGeometry%20width%3D%2250%22%20height%3D%2250%22%20relative%3D%221%22%20as%3D%22geometry%22%3E%3CmxPoint%20x%3D%22409.5%22%20y%3D%22840%22%20as%3D%22sourcePoint%22%2F%3E%3CmxPoint%20x%3D%22409.5%22%20y%3D%22220%22%20as%3D%22targetPoint%22%2F%3E%3C%2FmxGeometry%3E%3C%2FmxCell%3E%3C%2Froot%3E%3C%2FmxGraphModel%3E&lt;/span&gt;&lt;span style=&quot;color: rgba(0, 0, 0, 0); font-family: monospace; font-size: 0px; text-align: start; background-color: rgb(251, 251, 251);&quot;&gt;%3CmxGraphModel%3E%3Croot%3E%3CmxCell%20id%3D%220%22%2F%3E%3CmxCell%20id%3D%221%22%20parent%3D%220%22%2F%3E%3CmxCell%20id%3D%222%22%20value%3D%22%22%20style%3D%22endArrow%3Dnone%3Bhtml%3D1%3Brounded%3D0%3BstrokeWidth%3D6%3BfillColor%3D%23bac8d3%3BstrokeColor%3D%23BAC8D3%3BlabelBorderColor%3Ddefault%3BfontColor%3D%23FF99FF%3BtargetPerimeterSpacing%3D0%3B%22%20edge%3D%221%22%20parent%3D%221%22%3E%3CmxGeometry%20width%3D%2250%22%20height%3D%2250%22%20relative%3D%221%22%20as%3D%22geometry%22%3E%3CmxPoint%20x%3D%22409.5%22%20y%3D%22840%22%20as%3D%22sourcePoint%22%2F%3E%3CmxPoint%20x%3D%22409.5%22%20y%3D%22220%22%20as%3D%22targetPoint%22%2F%3E%3C%2FmxGeometry%3E%3C%2FmxCell%3E%3C%2Froot%3E%3C%2FmxGraphModel%3E&lt;/span&gt;" style="endArrow=none;html=1;rounded=0;dashed=1;dashPattern=8 8;endFill=0;" parent="1" edge="1">
          <mxGeometry x="0.7132" y="9" width="50" height="50" relative="1" as="geometry">
            <mxPoint x="410" y="1480" as="sourcePoint" />
            <mxPoint x="410" y="1410" as="targetPoint" />
            <mxPoint as="offset" />
          </mxGeometry>
        </mxCell>
        <mxCell id="kskQlB_dkP9eEl7HwI4r-136" value="&lt;span style=&quot;color: rgba(0, 0, 0, 0); font-family: monospace; font-size: 0px; text-align: start; background-color: rgb(251, 251, 251);&quot;&gt;%3CmxGraphModel%3E%3Croot%3E%3CmxCell%20id%3D%220%22%2F%3E%3CmxCell%20id%3D%221%22%20parent%3D%220%22%2F%3E%3CmxCell%20id%3D%222%22%20value%3D%22%22%20style%3D%22endArrow%3Dnone%3Bhtml%3D1%3Brounded%3D0%3BstrokeWidth%3D6%3BfillColor%3D%23bac8d3%3BstrokeColor%3D%23BAC8D3%3BlabelBorderColor%3Ddefault%3BfontColor%3D%23FF99FF%3BtargetPerimeterSpacing%3D0%3B%22%20edge%3D%221%22%20parent%3D%221%22%3E%3CmxGeometry%20width%3D%2250%22%20height%3D%2250%22%20relative%3D%221%22%20as%3D%22geometry%22%3E%3CmxPoint%20x%3D%22409.5%22%20y%3D%22840%22%20as%3D%22sourcePoint%22%2F%3E%3CmxPoint%20x%3D%22409.5%22%20y%3D%22220%22%20as%3D%22targetPoint%22%2F%3E%3C%2FmxGeometry%3E%3C%2FmxCell%3E%3C%2Froot%3E%3C%2FmxGraphModel%3E&lt;/span&gt;&lt;span style=&quot;color: rgba(0, 0, 0, 0); font-family: monospace; font-size: 0px; text-align: start; background-color: rgb(251, 251, 251);&quot;&gt;%3CmxGraphModel%3E%3Croot%3E%3CmxCell%20id%3D%220%22%2F%3E%3CmxCell%20id%3D%221%22%20parent%3D%220%22%2F%3E%3CmxCell%20id%3D%222%22%20value%3D%22%22%20style%3D%22endArrow%3Dnone%3Bhtml%3D1%3Brounded%3D0%3BstrokeWidth%3D6%3BfillColor%3D%23bac8d3%3BstrokeColor%3D%23BAC8D3%3BlabelBorderColor%3Ddefault%3BfontColor%3D%23FF99FF%3BtargetPerimeterSpacing%3D0%3B%22%20edge%3D%221%22%20parent%3D%221%22%3E%3CmxGeometry%20width%3D%2250%22%20height%3D%2250%22%20relative%3D%221%22%20as%3D%22geometry%22%3E%3CmxPoint%20x%3D%22409.5%22%20y%3D%22840%22%20as%3D%22sourcePoint%22%2F%3E%3CmxPoint%20x%3D%22409.5%22%20y%3D%22220%22%20as%3D%22targetPoint%22%2F%3E%3C%2FmxGeometry%3E%3C%2FmxCell%3E%3C%2Froot%3E%3C%2FmxGraphModel%3E&lt;/span&gt;" style="endArrow=none;html=1;rounded=0;dashed=1;dashPattern=8 8;endFill=0;" parent="1" edge="1">
          <mxGeometry x="0.7132" y="9" width="50" height="50" relative="1" as="geometry">
            <mxPoint x="780" y="720" as="sourcePoint" />
            <mxPoint x="780" y="690" as="targetPoint" />
            <mxPoint as="offset" />
          </mxGeometry>
        </mxCell>
        <mxCell id="kskQlB_dkP9eEl7HwI4r-137" value="&lt;span style=&quot;color: rgba(0, 0, 0, 0); font-family: monospace; font-size: 0px; text-align: start; background-color: rgb(251, 251, 251);&quot;&gt;%3CmxGraphModel%3E%3Croot%3E%3CmxCell%20id%3D%220%22%2F%3E%3CmxCell%20id%3D%221%22%20parent%3D%220%22%2F%3E%3CmxCell%20id%3D%222%22%20value%3D%22%22%20style%3D%22endArrow%3Dnone%3Bhtml%3D1%3Brounded%3D0%3BstrokeWidth%3D6%3BfillColor%3D%23bac8d3%3BstrokeColor%3D%23BAC8D3%3BlabelBorderColor%3Ddefault%3BfontColor%3D%23FF99FF%3BtargetPerimeterSpacing%3D0%3B%22%20edge%3D%221%22%20parent%3D%221%22%3E%3CmxGeometry%20width%3D%2250%22%20height%3D%2250%22%20relative%3D%221%22%20as%3D%22geometry%22%3E%3CmxPoint%20x%3D%22409.5%22%20y%3D%22840%22%20as%3D%22sourcePoint%22%2F%3E%3CmxPoint%20x%3D%22409.5%22%20y%3D%22220%22%20as%3D%22targetPoint%22%2F%3E%3C%2FmxGeometry%3E%3C%2FmxCell%3E%3C%2Froot%3E%3C%2FmxGraphModel%3E&lt;/span&gt;&lt;span style=&quot;color: rgba(0, 0, 0, 0); font-family: monospace; font-size: 0px; text-align: start; background-color: rgb(251, 251, 251);&quot;&gt;%3CmxGraphModel%3E%3Croot%3E%3CmxCell%20id%3D%220%22%2F%3E%3CmxCell%20id%3D%221%22%20parent%3D%220%22%2F%3E%3CmxCell%20id%3D%222%22%20value%3D%22%22%20style%3D%22endArrow%3Dnone%3Bhtml%3D1%3Brounded%3D0%3BstrokeWidth%3D6%3BfillColor%3D%23bac8d3%3BstrokeColor%3D%23BAC8D3%3BlabelBorderColor%3Ddefault%3BfontColor%3D%23FF99FF%3BtargetPerimeterSpacing%3D0%3B%22%20edge%3D%221%22%20parent%3D%221%22%3E%3CmxGeometry%20width%3D%2250%22%20height%3D%2250%22%20relative%3D%221%22%20as%3D%22geometry%22%3E%3CmxPoint%20x%3D%22409.5%22%20y%3D%22840%22%20as%3D%22sourcePoint%22%2F%3E%3CmxPoint%20x%3D%22409.5%22%20y%3D%22220%22%20as%3D%22targetPoint%22%2F%3E%3C%2FmxGeometry%3E%3C%2FmxCell%3E%3C%2Froot%3E%3C%2FmxGraphModel%3E&lt;/span&gt;" style="endArrow=none;html=1;rounded=0;dashed=1;dashPattern=8 8;endFill=0;" parent="1" edge="1">
          <mxGeometry x="0.7132" y="9" width="50" height="50" relative="1" as="geometry">
            <mxPoint x="780" y="1480" as="sourcePoint" />
            <mxPoint x="780" y="1070" as="targetPoint" />
            <mxPoint as="offset" />
          </mxGeometry>
        </mxCell>
        <mxCell id="kskQlB_dkP9eEl7HwI4r-138" value="&lt;span style=&quot;color: rgba(0, 0, 0, 0); font-family: monospace; font-size: 0px; text-align: start; background-color: rgb(251, 251, 251);&quot;&gt;%3CmxGraphModel%3E%3Croot%3E%3CmxCell%20id%3D%220%22%2F%3E%3CmxCell%20id%3D%221%22%20parent%3D%220%22%2F%3E%3CmxCell%20id%3D%222%22%20value%3D%22%22%20style%3D%22endArrow%3Dnone%3Bhtml%3D1%3Brounded%3D0%3BstrokeWidth%3D6%3BfillColor%3D%23bac8d3%3BstrokeColor%3D%23BAC8D3%3BlabelBorderColor%3Ddefault%3BfontColor%3D%23FF99FF%3BtargetPerimeterSpacing%3D0%3B%22%20edge%3D%221%22%20parent%3D%221%22%3E%3CmxGeometry%20width%3D%2250%22%20height%3D%2250%22%20relative%3D%221%22%20as%3D%22geometry%22%3E%3CmxPoint%20x%3D%22409.5%22%20y%3D%22840%22%20as%3D%22sourcePoint%22%2F%3E%3CmxPoint%20x%3D%22409.5%22%20y%3D%22220%22%20as%3D%22targetPoint%22%2F%3E%3C%2FmxGeometry%3E%3C%2FmxCell%3E%3C%2Froot%3E%3C%2FmxGraphModel%3E&lt;/span&gt;&lt;span style=&quot;color: rgba(0, 0, 0, 0); font-family: monospace; font-size: 0px; text-align: start; background-color: rgb(251, 251, 251);&quot;&gt;%3CmxGraphModel%3E%3Croot%3E%3CmxCell%20id%3D%220%22%2F%3E%3CmxCell%20id%3D%221%22%20parent%3D%220%22%2F%3E%3CmxCell%20id%3D%222%22%20value%3D%22%22%20style%3D%22endArrow%3Dnone%3Bhtml%3D1%3Brounded%3D0%3BstrokeWidth%3D6%3BfillColor%3D%23bac8d3%3BstrokeColor%3D%23BAC8D3%3BlabelBorderColor%3Ddefault%3BfontColor%3D%23FF99FF%3BtargetPerimeterSpacing%3D0%3B%22%20edge%3D%221%22%20parent%3D%221%22%3E%3CmxGeometry%20width%3D%2250%22%20height%3D%2250%22%20relative%3D%221%22%20as%3D%22geometry%22%3E%3CmxPoint%20x%3D%22409.5%22%20y%3D%22840%22%20as%3D%22sourcePoint%22%2F%3E%3CmxPoint%20x%3D%22409.5%22%20y%3D%22220%22%20as%3D%22targetPoint%22%2F%3E%3C%2FmxGeometry%3E%3C%2FmxCell%3E%3C%2Froot%3E%3C%2FmxGraphModel%3E&lt;/span&gt;" style="endArrow=none;html=1;rounded=0;dashed=1;dashPattern=8 8;endFill=0;" parent="1" edge="1">
          <mxGeometry x="0.7132" y="9" width="50" height="50" relative="1" as="geometry">
            <mxPoint x="979" y="1480" as="sourcePoint" />
            <mxPoint x="979" y="1210" as="targetPoint" />
            <mxPoint as="offset" />
          </mxGeometry>
        </mxCell>
        <mxCell id="kskQlB_dkP9eEl7HwI4r-139" value="&lt;span style=&quot;color: rgba(0, 0, 0, 0); font-family: monospace; font-size: 0px; text-align: start; background-color: rgb(251, 251, 251);&quot;&gt;%3CmxGraphModel%3E%3Croot%3E%3CmxCell%20id%3D%220%22%2F%3E%3CmxCell%20id%3D%221%22%20parent%3D%220%22%2F%3E%3CmxCell%20id%3D%222%22%20value%3D%22%22%20style%3D%22endArrow%3Dnone%3Bhtml%3D1%3Brounded%3D0%3BstrokeWidth%3D6%3BfillColor%3D%23bac8d3%3BstrokeColor%3D%23BAC8D3%3BlabelBorderColor%3Ddefault%3BfontColor%3D%23FF99FF%3BtargetPerimeterSpacing%3D0%3B%22%20edge%3D%221%22%20parent%3D%221%22%3E%3CmxGeometry%20width%3D%2250%22%20height%3D%2250%22%20relative%3D%221%22%20as%3D%22geometry%22%3E%3CmxPoint%20x%3D%22409.5%22%20y%3D%22840%22%20as%3D%22sourcePoint%22%2F%3E%3CmxPoint%20x%3D%22409.5%22%20y%3D%22220%22%20as%3D%22targetPoint%22%2F%3E%3C%2FmxGeometry%3E%3C%2FmxCell%3E%3C%2Froot%3E%3C%2FmxGraphModel%3E&lt;/span&gt;&lt;span style=&quot;color: rgba(0, 0, 0, 0); font-family: monospace; font-size: 0px; text-align: start; background-color: rgb(251, 251, 251);&quot;&gt;%3CmxGraphModel%3E%3Croot%3E%3CmxCell%20id%3D%220%22%2F%3E%3CmxCell%20id%3D%221%22%20parent%3D%220%22%2F%3E%3CmxCell%20id%3D%222%22%20value%3D%22%22%20style%3D%22endArrow%3Dnone%3Bhtml%3D1%3Brounded%3D0%3BstrokeWidth%3D6%3BfillColor%3D%23bac8d3%3BstrokeColor%3D%23BAC8D3%3BlabelBorderColor%3Ddefault%3BfontColor%3D%23FF99FF%3BtargetPerimeterSpacing%3D0%3B%22%20edge%3D%221%22%20parent%3D%221%22%3E%3CmxGeometry%20width%3D%2250%22%20height%3D%2250%22%20relative%3D%221%22%20as%3D%22geometry%22%3E%3CmxPoint%20x%3D%22409.5%22%20y%3D%22840%22%20as%3D%22sourcePoint%22%2F%3E%3CmxPoint%20x%3D%22409.5%22%20y%3D%22220%22%20as%3D%22targetPoint%22%2F%3E%3C%2FmxGeometry%3E%3C%2FmxCell%3E%3C%2Froot%3E%3C%2FmxGraphModel%3E&lt;/span&gt;" style="endArrow=none;html=1;rounded=0;dashed=1;dashPattern=8 8;endFill=0;" parent="1" edge="1">
          <mxGeometry x="0.7132" y="9" width="50" height="50" relative="1" as="geometry">
            <mxPoint x="979" y="710" as="sourcePoint" />
            <mxPoint x="979.29" y="118" as="targetPoint" />
            <mxPoint as="offset" />
          </mxGeometry>
        </mxCell>
        <mxCell id="kskQlB_dkP9eEl7HwI4r-142" value="&lt;span style=&quot;color: rgba(0, 0, 0, 0); font-family: monospace; font-size: 0px; text-align: start; background-color: rgb(251, 251, 251);&quot;&gt;%3CmxGraphModel%3E%3Croot%3E%3CmxCell%20id%3D%220%22%2F%3E%3CmxCell%20id%3D%221%22%20parent%3D%220%22%2F%3E%3CmxCell%20id%3D%222%22%20value%3D%22%22%20style%3D%22endArrow%3Dnone%3Bhtml%3D1%3Brounded%3D0%3BstrokeWidth%3D6%3BfillColor%3D%23bac8d3%3BstrokeColor%3D%23BAC8D3%3BlabelBorderColor%3Ddefault%3BfontColor%3D%23FF99FF%3BtargetPerimeterSpacing%3D0%3B%22%20edge%3D%221%22%20parent%3D%221%22%3E%3CmxGeometry%20width%3D%2250%22%20height%3D%2250%22%20relative%3D%221%22%20as%3D%22geometry%22%3E%3CmxPoint%20x%3D%22409.5%22%20y%3D%22840%22%20as%3D%22sourcePoint%22%2F%3E%3CmxPoint%20x%3D%22409.5%22%20y%3D%22220%22%20as%3D%22targetPoint%22%2F%3E%3C%2FmxGeometry%3E%3C%2FmxCell%3E%3C%2Froot%3E%3C%2FmxGraphModel%3E&lt;/span&gt;&lt;span style=&quot;color: rgba(0, 0, 0, 0); font-family: monospace; font-size: 0px; text-align: start; background-color: rgb(251, 251, 251);&quot;&gt;%3CmxGraphModel%3E%3Croot%3E%3CmxCell%20id%3D%220%22%2F%3E%3CmxCell%20id%3D%221%22%20parent%3D%220%22%2F%3E%3CmxCell%20id%3D%222%22%20value%3D%22%22%20style%3D%22endArrow%3Dnone%3Bhtml%3D1%3Brounded%3D0%3BstrokeWidth%3D6%3BfillColor%3D%23bac8d3%3BstrokeColor%3D%23BAC8D3%3BlabelBorderColor%3Ddefault%3BfontColor%3D%23FF99FF%3BtargetPerimeterSpacing%3D0%3B%22%20edge%3D%221%22%20parent%3D%221%22%3E%3CmxGeometry%20width%3D%2250%22%20height%3D%2250%22%20relative%3D%221%22%20as%3D%22geometry%22%3E%3CmxPoint%20x%3D%22409.5%22%20y%3D%22840%22%20as%3D%22sourcePoint%22%2F%3E%3CmxPoint%20x%3D%22409.5%22%20y%3D%22220%22%20as%3D%22targetPoint%22%2F%3E%3C%2FmxGeometry%3E%3C%2FmxCell%3E%3C%2Froot%3E%3C%2FmxGraphModel%3E&lt;/span&gt;" style="endArrow=none;html=1;rounded=0;dashed=1;dashPattern=8 8;endFill=0;" parent="1" edge="1">
          <mxGeometry x="0.7132" y="9" width="50" height="50" relative="1" as="geometry">
            <mxPoint x="1234.29" y="798" as="sourcePoint" />
            <mxPoint x="1234" y="123" as="targetPoint" />
            <mxPoint as="offset" />
          </mxGeometry>
        </mxCell>
        <mxCell id="kskQlB_dkP9eEl7HwI4r-143" value="&lt;span style=&quot;color: rgba(0, 0, 0, 0); font-family: monospace; font-size: 0px; text-align: start; background-color: rgb(251, 251, 251);&quot;&gt;%3CmxGraphModel%3E%3Croot%3E%3CmxCell%20id%3D%220%22%2F%3E%3CmxCell%20id%3D%221%22%20parent%3D%220%22%2F%3E%3CmxCell%20id%3D%222%22%20value%3D%22%22%20style%3D%22endArrow%3Dnone%3Bhtml%3D1%3Brounded%3D0%3BstrokeWidth%3D6%3BfillColor%3D%23bac8d3%3BstrokeColor%3D%23BAC8D3%3BlabelBorderColor%3Ddefault%3BfontColor%3D%23FF99FF%3BtargetPerimeterSpacing%3D0%3B%22%20edge%3D%221%22%20parent%3D%221%22%3E%3CmxGeometry%20width%3D%2250%22%20height%3D%2250%22%20relative%3D%221%22%20as%3D%22geometry%22%3E%3CmxPoint%20x%3D%22409.5%22%20y%3D%22840%22%20as%3D%22sourcePoint%22%2F%3E%3CmxPoint%20x%3D%22409.5%22%20y%3D%22220%22%20as%3D%22targetPoint%22%2F%3E%3C%2FmxGeometry%3E%3C%2FmxCell%3E%3C%2Froot%3E%3C%2FmxGraphModel%3E&lt;/span&gt;&lt;span style=&quot;color: rgba(0, 0, 0, 0); font-family: monospace; font-size: 0px; text-align: start; background-color: rgb(251, 251, 251);&quot;&gt;%3CmxGraphModel%3E%3Croot%3E%3CmxCell%20id%3D%220%22%2F%3E%3CmxCell%20id%3D%221%22%20parent%3D%220%22%2F%3E%3CmxCell%20id%3D%222%22%20value%3D%22%22%20style%3D%22endArrow%3Dnone%3Bhtml%3D1%3Brounded%3D0%3BstrokeWidth%3D6%3BfillColor%3D%23bac8d3%3BstrokeColor%3D%23BAC8D3%3BlabelBorderColor%3Ddefault%3BfontColor%3D%23FF99FF%3BtargetPerimeterSpacing%3D0%3B%22%20edge%3D%221%22%20parent%3D%221%22%3E%3CmxGeometry%20width%3D%2250%22%20height%3D%2250%22%20relative%3D%221%22%20as%3D%22geometry%22%3E%3CmxPoint%20x%3D%22409.5%22%20y%3D%22840%22%20as%3D%22sourcePoint%22%2F%3E%3CmxPoint%20x%3D%22409.5%22%20y%3D%22220%22%20as%3D%22targetPoint%22%2F%3E%3C%2FmxGeometry%3E%3C%2FmxCell%3E%3C%2Froot%3E%3C%2FmxGraphModel%3E&lt;/span&gt;" style="endArrow=none;html=1;rounded=0;dashed=1;dashPattern=8 8;endFill=0;" parent="1" edge="1">
          <mxGeometry x="0.7132" y="9" width="50" height="50" relative="1" as="geometry">
            <mxPoint x="1234" y="1480" as="sourcePoint" />
            <mxPoint x="1234.29" y="877.5" as="targetPoint" />
            <mxPoint as="offset" />
          </mxGeometry>
        </mxCell>
        <mxCell id="kskQlB_dkP9eEl7HwI4r-120" value="&lt;span style=&quot;color: rgb(0, 0, 0); font-size: 12px;&quot;&gt;1.4.8: new Message(message)&lt;/span&gt;" style="text;html=1;align=center;verticalAlign=middle;whiteSpace=wrap;rounded=0;fontFamily=Helvetica;fontSize=11;fontColor=#FF99FF;labelBorderColor=none;labelBackgroundColor=default;" parent="1" vertex="1">
          <mxGeometry x="362.67" y="1230" width="277.33" height="30" as="geometry" />
        </mxCell>
        <mxCell id="kskQlB_dkP9eEl7HwI4r-121" value="&lt;span style=&quot;color: rgb(0, 0, 0); font-size: 12px;&quot;&gt;1.4.9: process User, Message, &lt;br&gt;and&amp;nbsp; g&lt;/span&gt;&lt;span style=&quot;font-size: 12px; color: rgb(0, 0, 0);&quot;&gt;enerate HTML&lt;/span&gt;" style="text;html=1;align=center;verticalAlign=middle;whiteSpace=wrap;rounded=0;fontFamily=Helvetica;fontSize=11;fontColor=#FF99FF;labelBorderColor=none;labelBackgroundColor=default;" parent="1" vertex="1">
          <mxGeometry x="400" y="1320" width="277.33" height="30" as="geometry" />
        </mxCell>
        <mxCell id="kskQlB_dkP9eEl7HwI4r-144" value="&lt;span style=&quot;color: rgba(0, 0, 0, 0); font-family: monospace; font-size: 0px; text-align: start; background-color: rgb(251, 251, 251);&quot;&gt;%3CmxGraphModel%3E%3Croot%3E%3CmxCell%20id%3D%220%22%2F%3E%3CmxCell%20id%3D%221%22%20parent%3D%220%22%2F%3E%3CmxCell%20id%3D%222%22%20value%3D%22%22%20style%3D%22endArrow%3Dnone%3Bhtml%3D1%3Brounded%3D0%3BstrokeWidth%3D6%3BfillColor%3D%23bac8d3%3BstrokeColor%3D%23BAC8D3%3BlabelBorderColor%3Ddefault%3BfontColor%3D%23FF99FF%3BtargetPerimeterSpacing%3D0%3B%22%20edge%3D%221%22%20parent%3D%221%22%3E%3CmxGeometry%20width%3D%2250%22%20height%3D%2250%22%20relative%3D%221%22%20as%3D%22geometry%22%3E%3CmxPoint%20x%3D%22409.5%22%20y%3D%22840%22%20as%3D%22sourcePoint%22%2F%3E%3CmxPoint%20x%3D%22409.5%22%20y%3D%22220%22%20as%3D%22targetPoint%22%2F%3E%3C%2FmxGeometry%3E%3C%2FmxCell%3E%3C%2Froot%3E%3C%2FmxGraphModel%3E&lt;/span&gt;&lt;span style=&quot;color: rgba(0, 0, 0, 0); font-family: monospace; font-size: 0px; text-align: start; background-color: rgb(251, 251, 251);&quot;&gt;%3CmxGraphModel%3E%3Croot%3E%3CmxCell%20id%3D%220%22%2F%3E%3CmxCell%20id%3D%221%22%20parent%3D%220%22%2F%3E%3CmxCell%20id%3D%222%22%20value%3D%22%22%20style%3D%22endArrow%3Dnone%3Bhtml%3D1%3Brounded%3D0%3BstrokeWidth%3D6%3BfillColor%3D%23bac8d3%3BstrokeColor%3D%23BAC8D3%3BlabelBorderColor%3Ddefault%3BfontColor%3D%23FF99FF%3BtargetPerimeterSpacing%3D0%3B%22%20edge%3D%221%22%20parent%3D%221%22%3E%3CmxGeometry%20width%3D%2250%22%20height%3D%2250%22%20relative%3D%221%22%20as%3D%22geometry%22%3E%3CmxPoint%20x%3D%22409.5%22%20y%3D%22840%22%20as%3D%22sourcePoint%22%2F%3E%3CmxPoint%20x%3D%22409.5%22%20y%3D%22220%22%20as%3D%22targetPoint%22%2F%3E%3C%2FmxGeometry%3E%3C%2FmxCell%3E%3C%2Froot%3E%3C%2FmxGraphModel%3E&lt;/span&gt;" style="endArrow=none;html=1;rounded=0;dashed=1;dashPattern=8 8;endFill=0;" parent="1" edge="1">
          <mxGeometry x="0.7132" y="9" width="50" height="50" relative="1" as="geometry">
            <mxPoint x="677.33" y="1480" as="sourcePoint" />
            <mxPoint x="677.33" y="1290" as="targetPoint" />
            <mxPoint as="offset" />
          </mxGeometry>
        </mxCell>
        <mxCell id="kskQlB_dkP9eEl7HwI4r-145" value="&lt;span style=&quot;color: rgba(0, 0, 0, 0); font-family: monospace; font-size: 0px; text-align: start; background-color: rgb(251, 251, 251);&quot;&gt;%3CmxGraphModel%3E%3Croot%3E%3CmxCell%20id%3D%220%22%2F%3E%3CmxCell%20id%3D%221%22%20parent%3D%220%22%2F%3E%3CmxCell%20id%3D%222%22%20value%3D%22%22%20style%3D%22endArrow%3Dnone%3Bhtml%3D1%3Brounded%3D0%3BstrokeWidth%3D6%3BfillColor%3D%23bac8d3%3BstrokeColor%3D%23BAC8D3%3BlabelBorderColor%3Ddefault%3BfontColor%3D%23FF99FF%3BtargetPerimeterSpacing%3D0%3B%22%20edge%3D%221%22%20parent%3D%221%22%3E%3CmxGeometry%20width%3D%2250%22%20height%3D%2250%22%20relative%3D%221%22%20as%3D%22geometry%22%3E%3CmxPoint%20x%3D%22409.5%22%20y%3D%22840%22%20as%3D%22sourcePoint%22%2F%3E%3CmxPoint%20x%3D%22409.5%22%20y%3D%22220%22%20as%3D%22targetPoint%22%2F%3E%3C%2FmxGeometry%3E%3C%2FmxCell%3E%3C%2Froot%3E%3C%2FmxGraphModel%3E&lt;/span&gt;&lt;span style=&quot;color: rgba(0, 0, 0, 0); font-family: monospace; font-size: 0px; text-align: start; background-color: rgb(251, 251, 251);&quot;&gt;%3CmxGraphModel%3E%3Croot%3E%3CmxCell%20id%3D%220%22%2F%3E%3CmxCell%20id%3D%221%22%20parent%3D%220%22%2F%3E%3CmxCell%20id%3D%222%22%20value%3D%22%22%20style%3D%22endArrow%3Dnone%3Bhtml%3D1%3Brounded%3D0%3BstrokeWidth%3D6%3BfillColor%3D%23bac8d3%3BstrokeColor%3D%23BAC8D3%3BlabelBorderColor%3Ddefault%3BfontColor%3D%23FF99FF%3BtargetPerimeterSpacing%3D0%3B%22%20edge%3D%221%22%20parent%3D%221%22%3E%3CmxGeometry%20width%3D%2250%22%20height%3D%2250%22%20relative%3D%221%22%20as%3D%22geometry%22%3E%3CmxPoint%20x%3D%22409.5%22%20y%3D%22840%22%20as%3D%22sourcePoint%22%2F%3E%3CmxPoint%20x%3D%22409.5%22%20y%3D%22220%22%20as%3D%22targetPoint%22%2F%3E%3C%2FmxGeometry%3E%3C%2FmxCell%3E%3C%2Froot%3E%3C%2FmxGraphModel%3E&lt;/span&gt;" style="endArrow=none;html=1;rounded=0;dashed=1;dashPattern=8 8;endFill=0;" parent="1" edge="1">
          <mxGeometry x="0.7132" y="9" width="50" height="50" relative="1" as="geometry">
            <mxPoint x="1140" y="1480" as="sourcePoint" />
            <mxPoint x="1140" y="1020" as="targetPoint" />
            <mxPoint as="offset" />
          </mxGeometry>
        </mxCell>
      </root>
    </mxGraphModel>
  </diagram>
</mxfile>
